<svg width="26" height="32" viewBox="0 0 26 32" fill="none" xmlns="http://www.w3.org/2000/svg">
<path d="M25.8325 28.8342L14.9976 1.40639C14.6658 0.554985 13.8735 0 12.9999 0C12.1264 0 11.3341 0.554985 11.0022 1.40639L0.167358 28.8342C-0.292921 29.9992 0.228724 31.3377 1.33346 31.8227C2.44268 32.3104 3.70901 31.7569 4.16678 30.5927L6.32021 25.1422H19.681L21.8344 30.5927C22.1804 31.4699 22.987 31.9998 23.8355 31.9998C24.1127 31.9998 24.3952 31.9429 24.6684 31.8224C25.7715 31.3341 26.293 29.9985 25.8325 28.8342ZM8.06327 20.5702L12.9999 8.22763L17.8756 20.5702H8.06327Z" fill="#54FF84"/>
</svg>
