<svg width="46" height="36" viewBox="0 0 46 36" fill="none" xmlns="http://www.w3.org/2000/svg">
<path d="M26.6337 13.7344C26.6337 12.0078 25.3878 11.0547 23.1996 11.0547H19.1746V16.6172H22.5687C25.1882 16.6094 26.6337 15.5781 26.6337 13.7344ZM41.2882 12.7344C40.5295 10.3203 40.4177 7.35938 40.5055 5.07031C40.5934 2.6875 38.6927 0.5 36.1371 0.5H9.87881C7.31527 0.5 5.42256 2.69531 5.51041 5.07031C5.59027 7.35938 5.48645 10.3203 4.72777 12.7344C3.9611 15.1562 2.67534 16.6875 0.559021 16.8828V19.1094C2.66735 19.3047 3.9611 20.8359 4.72777 23.2578C5.48645 25.6719 5.59826 28.6328 5.51041 30.9219C5.42256 33.3047 7.32326 35.4922 9.87881 35.4922H36.1292C38.6927 35.4922 40.5854 33.2969 40.4976 30.9219C40.4177 28.6328 40.5215 25.6719 41.2802 23.2578C42.0469 20.8359 43.3326 19.3047 45.441 19.1094V16.8828C43.3406 16.6875 42.0469 15.1562 41.2882 12.7344ZM23.9743 27.3047H16.1559V8.6875H23.9344C27.3924 8.6875 29.6604 10.5156 29.6604 13.3281C29.6604 15.3047 28.1351 17.0703 26.1864 17.375V17.4766C28.8378 17.7578 30.6187 19.5547 30.6187 22.0312C30.6187 25.3203 28.1191 27.3047 23.9743 27.3047ZM23.1757 18.8125H19.1746V24.9375H23.3514C26.0826 24.9375 27.5281 23.8672 27.5281 21.8516C27.5281 19.8437 26.0427 18.8125 23.1757 18.8125Z" fill="#0085FF"/>
</svg>
