<svg width="40" height="45" viewBox="0 0 40 45" fill="none" xmlns="http://www.w3.org/2000/svg">
<path d="M34.7888 22.8476C34.4623 22.4938 34.132 22.1477 33.7979 21.8094C34.0023 21.559 34.1993 21.3045 34.3964 21.0501C37.5278 16.9286 38.7321 12.9016 37.3323 10.5946C35.9793 8.38158 32.2605 7.89142 27.6769 9.0909C27.2244 9.20624 26.7718 9.34104 26.3338 9.48378C26.2342 9.17538 26.1273 8.863 26.0167 8.55836C24.211 3.62539 21.5208 0.4985 18.9329 0.643665C16.4514 0.778391 14.1918 3.95709 12.8805 8.75688C12.7509 9.23376 12.6323 9.70688 12.5246 10.1957C11.9901 10.0806 11.4554 9.985 10.9462 9.91301C6.35634 9.22223 2.46723 9.95911 1.33528 12.2952C0.165855 14.7086 1.96976 18.7509 5.3073 22.4259C5.57943 22.7207 5.85156 23.0155 6.13849 23.2989C5.80415 23.7034 5.48815 24.1081 5.17195 24.5323C2.32556 28.4082 1.2747 32.1375 2.62048 34.3466C4.00589 36.6261 7.91832 37.1924 12.594 35.9551C12.9656 35.8544 13.3409 35.7459 13.7237 35.622C13.8836 36.1295 14.0656 36.6294 14.2513 37.1216C15.995 41.6688 18.5231 44.5021 20.9935 44.3712C23.5483 44.2373 25.9633 40.9281 27.2904 36.0196C27.3897 35.6435 27.4854 35.2557 27.5775 34.8562C27.8448 34.9137 28.1084 34.9595 28.3721 35.0053C33.2982 35.8206 37.5065 35.0913 38.6946 32.6392C39.8303 30.2954 38.0574 26.4557 34.7888 22.8476ZM28.0985 10.9043C32.0273 9.87615 35.0353 10.2725 35.8471 11.6043C36.7167 13.0261 35.7217 16.3166 33.0179 19.8791C32.8394 20.1143 32.6647 20.3417 32.4753 20.5613C31.0428 19.2924 29.536 18.1199 27.9619 17.0672C27.7105 15.1119 27.3415 13.1708 26.8438 11.2671C27.267 11.1358 27.6755 11.0161 28.0985 10.9043ZM11.5902 22.9534C11.6362 23.829 11.6895 24.7086 11.7723 25.5846C10.6977 24.8333 9.6604 24.024 8.66768 23.1608C9.52848 22.2218 10.4883 21.2877 11.525 20.3663C11.5308 21.2297 11.5477 22.0895 11.5902 22.9534ZM13.8883 12.4439C15.0589 12.7685 16.2728 13.1753 17.5079 13.6524C16.8101 14.0838 16.1121 14.5347 15.4322 15.0052C14.7561 15.4681 14.0797 15.9503 13.4216 16.4522C13.5203 15.0493 13.6808 13.7094 13.8883 12.4439ZM13.3051 18.8622C14.3039 18.057 15.3353 17.2988 16.3884 16.572C17.4414 15.8452 18.5233 15.1731 19.6268 14.5325C20.7625 15.0434 21.9014 15.6049 23.0397 16.2248C24.178 16.8446 25.2792 17.503 26.3252 18.1801C26.4732 19.4925 26.5807 20.8122 26.6478 22.1392C26.7149 23.4662 26.7342 24.7966 26.7169 26.1265C25.7108 26.9277 24.6757 27.6937 23.6116 28.4242C22.5585 29.151 21.484 29.8271 20.384 30.4794C19.2555 29.9725 18.1058 29.3953 16.9602 28.7714C15.8146 28.1476 14.7243 27.505 13.6854 26.8513C13.5266 25.5232 13.4155 24.1918 13.3521 22.857C13.2888 21.5223 13.2767 20.1959 13.3051 18.8622ZM24.564 29.9987C25.2659 29.5206 25.9498 29.0229 26.6301 28.5135C26.5536 29.8894 26.4112 31.249 26.2028 32.6117C24.9406 32.2666 23.6938 31.8516 22.4734 31.3631C23.1823 30.9279 23.8768 30.4653 24.564 29.9987ZM28.482 24.6534C28.4689 23.7859 28.4485 22.9145 28.406 22.0506C28.3671 21.1984 28.3098 20.346 28.2342 19.4933C29.334 20.2878 30.3565 21.1085 31.2835 21.936C30.3931 22.898 29.4594 23.7973 28.482 24.6534ZM25.1758 11.8545C25.5146 13.1536 25.7872 14.4752 25.9938 15.7999C24.5827 14.9436 23.1307 14.1528 21.6522 13.4357C22.8508 12.8273 24.0376 12.3003 25.1758 11.8545ZM19.0092 2.50362C20.6023 2.41309 22.7993 4.97813 24.3626 9.23157C24.4625 9.50109 24.555 9.78607 24.6547 10.075C22.8978 10.7509 21.1872 11.5596 19.5342 12.4779C17.8101 11.7346 16.0445 11.1153 14.2409 10.6122C14.3372 10.166 14.4519 9.72009 14.5665 9.27415C15.6947 5.15676 17.5152 2.57973 19.0092 2.50362ZM7.34132 21.9204C7.07983 21.6607 6.82939 21.3972 6.5827 21.126C5.27962 19.7614 3.91111 17.9799 3.15517 16.2093C2.68057 15.2665 2.58919 14.1609 2.90408 13.1495C3.59 11.7339 6.77284 11.1794 10.6961 11.7614C11.187 11.8332 11.6777 11.9244 12.1646 12.0234C11.8474 13.9721 11.6474 15.9456 11.5685 17.9165C10.0846 19.1518 8.66939 20.4928 7.34132 21.9204ZM12.1761 34.134C10.4062 34.6464 8.56274 34.8157 6.73766 34.6236C5.72907 34.5925 4.77635 34.1226 4.11318 33.3215C3.29783 31.9781 4.13934 28.9853 6.57643 25.6686C6.86659 25.2791 7.16405 24.8936 7.47235 24.5238C8.92691 25.7852 10.4523 26.9384 12.0595 27.9798C12.3218 29.9508 12.7089 31.9116 13.2102 33.827C12.8605 33.9397 12.5146 34.0446 12.1761 34.134ZM14.8746 33.2278C14.5427 31.9716 14.2557 30.6227 14.0243 29.216C14.7098 29.6283 15.4247 30.0372 16.1544 30.4345C16.9059 30.8438 17.6504 31.2296 18.3988 31.5883C17.2515 32.2051 16.0756 32.7477 14.8746 33.2278ZM23.287 40.7417C22.7641 41.6496 21.899 42.2931 20.9099 42.5072C19.4049 42.5871 17.3811 40.3119 15.8874 36.4287C15.7159 35.9834 15.5556 35.5148 15.3917 35.0345C17.1416 34.3352 18.8413 33.5108 20.48 32.5652C22.2221 33.3281 24.017 33.9633 25.8499 34.4629C25.7692 34.8197 25.6812 35.1727 25.5897 35.5139C25.1376 37.3794 24.3526 39.1516 23.287 40.7417ZM28.6443 33.1494C28.4063 33.1078 28.1682 33.0661 27.9266 33.0128C28.233 31.0483 28.4038 29.059 28.4573 27.0644C29.9224 25.8679 31.3006 24.5653 32.6026 23.1724C32.9258 23.4951 33.2307 23.8175 33.5209 24.132C36.3215 27.2213 37.8155 30.3616 37.1333 31.7694C36.3987 33.2855 32.9038 33.8558 28.6443 33.1494ZM18.2833 26.0409C20.1294 27.0462 22.3936 26.275 23.3419 24.3179C24.2902 22.3609 23.5627 19.9606 21.7166 18.9553C19.8705 17.9501 17.6063 18.7212 16.6581 20.6783C15.7098 22.6353 16.4372 25.0356 18.2833 26.0409Z" fill="#FF602E"/>
</svg>
