<svg width="28" height="43" viewBox="0 0 28 43" fill="none" xmlns="http://www.w3.org/2000/svg">
<path d="M0 8.04506C0 3.6019 3.37363 0 7.53525 0H20.4647C24.6264 0 28 3.6019 28 8.04506C28 10.8585 26.6473 13.3347 24.5984 14.7726C26.6473 16.2106 28 18.6867 28 21.5002C28 25.9434 24.6264 29.5453 20.4647 29.5453H20.3011C18.3502 29.5453 16.5723 28.7536 15.2341 27.4548V34.8675C15.2341 39.3699 11.7723 43 7.57584 43C3.42463 43 0 39.4091 0 34.9549C0 32.1416 1.35255 29.6656 3.40128 28.2276C1.35255 26.7896 0 24.3135 0 21.5002C0 18.6867 1.35267 16.2106 3.40153 14.7726C1.35267 13.3347 0 10.8585 0 8.04506ZM12.7659 16.0903H7.53525C4.7368 16.0903 2.46824 18.5124 2.46824 21.5002C2.46824 24.4764 4.7193 26.8913 7.50285 26.9099C7.51362 26.9099 7.5244 26.9099 7.53525 26.9099H12.7659V16.0903ZM15.2341 21.5002C15.2341 24.4879 17.5027 26.91 20.3011 26.91H20.4647C23.2632 26.91 25.5317 24.4879 25.5317 21.5002C25.5317 18.5124 23.2632 16.0903 20.4647 16.0903H20.3011C17.5027 16.0903 15.2341 18.5124 15.2341 21.5002ZM7.53525 29.5453C7.5244 29.5453 7.51362 29.5452 7.50285 29.5452C4.7193 29.5638 2.46824 31.9786 2.46824 34.9549C2.46824 37.9317 4.7671 40.3647 7.57584 40.3647C10.4299 40.3647 12.7659 37.8926 12.7659 34.8675V29.5453H7.53525ZM7.53525 2.63524C4.7368 2.63524 2.46824 5.05731 2.46824 8.04506C2.46824 11.0329 4.7368 13.4549 7.53525 13.4549H12.7659V2.63524H7.53525ZM15.2341 13.4549H20.4647C23.2632 13.4549 25.5317 11.0329 25.5317 8.04506C25.5317 5.05731 23.2632 2.63524 20.4647 2.63524H15.2341V13.4549Z" fill="url(#paint0_linear_42_66)"/>
<defs>
<linearGradient id="paint0_linear_42_66" x1="14" y1="0" x2="14" y2="43" gradientUnits="userSpaceOnUse">
<stop stop-color="#EA1313"/>
<stop offset="1" stop-color="#075ABC" stop-opacity="0.97"/>
</linearGradient>
</defs>
</svg>
