<svg width="42" height="43" viewBox="0 0 42 43" fill="none" xmlns="http://www.w3.org/2000/svg">
<path d="M14.048 34.1516C14.048 34.3234 13.8532 34.4609 13.6077 34.4609C13.3282 34.4867 13.1335 34.3492 13.1335 34.1516C13.1335 33.9797 13.3282 33.8422 13.5738 33.8422C13.8278 33.8164 14.048 33.9539 14.048 34.1516ZM11.4145 33.7648C11.3552 33.9367 11.5246 34.1344 11.7786 34.1859C11.9988 34.2719 12.2528 34.1859 12.3036 34.0141C12.3544 33.8422 12.1935 33.6445 11.9395 33.5672C11.7194 33.507 11.4738 33.593 11.4145 33.7648ZM15.1573 33.6188C14.9117 33.6789 14.7423 33.8422 14.7677 34.0398C14.7931 34.2117 15.0133 34.3234 15.2673 34.2633C15.5129 34.2031 15.6823 34.0398 15.6569 33.868C15.6315 33.7047 15.4028 33.593 15.1573 33.6188ZM20.729 0.6875C8.98427 0.6875 0 9.73672 0 21.6562C0 31.1867 5.91048 39.3422 14.3528 42.2125C15.4367 42.4102 15.8177 41.7313 15.8177 41.1727C15.8177 40.6398 15.7923 37.7008 15.7923 35.8961C15.7923 35.8961 9.86492 37.1852 8.62016 33.3352C8.62016 33.3352 7.65484 30.8344 6.26613 30.1898C6.26613 30.1898 4.32702 28.8406 6.40161 28.8664C6.40161 28.8664 8.51008 29.0383 9.67016 31.0836C11.5246 34.4008 14.6323 33.4469 15.8431 32.8797C16.0379 31.5047 16.5883 30.5508 17.198 29.9836C12.4645 29.4508 7.68871 28.7547 7.68871 20.4875C7.68871 18.1242 8.33226 16.9383 9.6871 15.4258C9.46694 14.8672 8.74718 12.5641 9.90726 9.59062C11.677 9.03203 15.75 11.9109 15.75 11.9109C17.4435 11.4297 19.2641 11.1805 21.0677 11.1805C22.8714 11.1805 24.6919 11.4297 26.3855 11.9109C26.3855 11.9109 30.4585 9.02344 32.2282 9.59062C33.3883 12.5727 32.6685 14.8672 32.4484 15.4258C33.8032 16.9469 34.6331 18.1328 34.6331 20.4875C34.6331 28.7805 29.6456 29.4422 24.9121 29.9836C25.6911 30.6625 26.3516 31.9516 26.3516 33.9711C26.3516 36.8672 26.3262 40.4508 26.3262 41.1555C26.3262 41.7141 26.7157 42.393 27.7911 42.1953C36.2589 39.3422 42 31.1867 42 21.6562C42 9.73672 32.4738 0.6875 20.729 0.6875ZM8.23065 30.3273C8.12056 30.4133 8.14597 30.6109 8.28992 30.7742C8.4254 30.9117 8.62016 30.9719 8.73024 30.8602C8.84032 30.7742 8.81492 30.5766 8.67097 30.4133C8.53548 30.2758 8.34073 30.2156 8.23065 30.3273ZM7.31613 29.6312C7.25686 29.743 7.34153 29.8805 7.51089 29.9664C7.64637 30.0523 7.81573 30.0266 7.875 29.9062C7.93427 29.7945 7.8496 29.657 7.68024 29.5711C7.51089 29.5195 7.3754 29.5453 7.31613 29.6312ZM10.0597 32.6906C9.92419 32.8023 9.975 33.0602 10.1698 33.2234C10.3645 33.4211 10.6101 33.4469 10.7202 33.3094C10.8302 33.1977 10.7794 32.9398 10.6101 32.7766C10.4238 32.5789 10.1698 32.5531 10.0597 32.6906ZM9.09435 31.4273C8.95887 31.5133 8.95887 31.7367 9.09435 31.9344C9.22984 32.132 9.45847 32.218 9.56855 32.132C9.70403 32.0203 9.70403 31.7969 9.56855 31.5992C9.45 31.4016 9.22984 31.3156 9.09435 31.4273Z" fill="black"/>
</svg>
