<svg width="35" height="44" viewBox="0 0 35 44" fill="none" xmlns="http://www.w3.org/2000/svg">
<path d="M17.4922 44C16.9673 44 16.4346 43.8428 15.9725 43.546L11.1392 40.3592C10.4185 39.9051 10.771 39.748 11.006 39.6607C11.9696 39.2852 12.1654 39.2067 13.1916 38.5518C13.3013 38.482 13.4423 38.5082 13.5519 38.5868L17.265 41.0402C17.3982 41.1275 17.5862 41.1275 17.7115 41.0402L32.1799 31.7329C32.3131 31.6456 32.3993 31.471 32.3993 31.2964V12.6818C32.3993 12.4985 32.3131 12.3326 32.1721 12.2365L17.7115 2.93799C17.5783 2.85068 17.3982 2.85068 17.265 2.93799L2.81222 12.2453C2.67122 12.3326 2.58505 12.5072 2.58505 12.6905V31.2964C2.58505 31.471 2.67122 31.6456 2.81222 31.7242L6.77596 34.2736C8.93017 35.4698 10.2462 34.0641 10.2462 32.6409V14.2709C10.2462 14.0089 10.4342 13.8081 10.6692 13.8081H12.5022C12.7294 13.8081 12.9252 14.0089 12.9252 14.2709V32.6497C12.9252 35.8452 11.3586 37.6787 8.64033 37.6787C7.80215 37.6787 7.14414 37.6787 5.3111 36.6659L1.5197 34.23C0.579678 33.6275 0 32.5012 0 31.2876V12.6818C0 11.4769 0.579678 10.3419 1.5197 9.73946L15.9725 0.432186C16.889 -0.144062 18.1032 -0.144062 19.0119 0.432186L33.4803 9.74819C34.4203 10.3506 35 11.4769 35 12.6905V31.2964C35 32.5012 34.4203 33.6275 33.4803 34.2387L19.0119 43.546C18.5497 43.8428 18.0248 44 17.4922 44ZM29.1719 25.6561C29.1719 22.1724 27.0568 21.2469 22.6153 20.5921C18.1188 19.9286 17.6645 19.5881 17.6645 18.4181C17.6645 17.449 18.0483 16.1568 21.3776 16.1568C24.3465 16.1568 25.4432 16.8727 25.8975 19.1078C25.9367 19.3174 26.109 19.4746 26.3048 19.4746H28.1849C28.3024 19.4746 28.412 19.4222 28.4904 19.3261C28.5687 19.2301 28.6079 19.0991 28.6 18.9682C28.3102 15.1178 26.015 13.3279 21.3776 13.3279C17.2493 13.3279 14.7896 15.2662 14.7896 18.5229C14.7896 22.0502 17.2415 23.0281 21.1974 23.4646C25.9367 23.9798 26.3048 24.7568 26.3048 25.7958C26.3048 27.5944 25.0045 28.3627 21.9573 28.3627C18.1267 28.3627 17.2885 27.2888 17.0065 25.1672C16.9752 24.9402 16.8028 24.7743 16.5913 24.7743H14.7191C14.4841 24.7743 14.3039 24.9838 14.3039 25.237C14.3039 27.9524 15.6278 31.1916 21.9651 31.1916C26.5398 31.1829 29.1719 29.166 29.1719 25.6561Z" fill="#AFAA24"/>
</svg>
