<svg width="60" height="30" viewBox="0 0 60 30" fill="none" xmlns="http://www.w3.org/2000/svg">
<path d="M8.07349 2.5769L8.61849 3.6019C8.73714 3.7868 8.87526 3.95844 9.03049 4.1139C9.48699 4.5704 9.92149 5.0489 10.3105 5.5614C11.2345 6.7749 11.858 8.1224 12.3035 9.5814C12.5705 10.4724 12.7155 11.3854 12.7265 12.3094C12.7715 15.0709 11.8245 17.4424 9.90949 19.4134C9.59921 19.7258 9.26411 20.0126 8.90749 20.2709C8.71749 20.2709 8.62899 20.1209 8.55099 19.9924C8.40099 19.7424 8.31699 19.4689 8.27249 19.1909C8.20549 18.8569 8.16099 18.5229 8.18349 18.1774V18.0214C8.17249 17.9879 8.00549 2.6554 8.07199 2.5774L8.07349 2.5769Z" fill="#599636"/>
<path d="M8.07349 2.5441C8.05099 2.4991 8.02849 2.5331 8.00649 2.5551C8.01749 2.7776 7.93949 2.9781 7.81649 3.1676C7.68299 3.3576 7.50449 3.5016 7.32649 3.6576C6.33549 4.5151 5.55649 5.5506 4.93249 6.7086C4.10849 8.2676 3.67449 9.9376 3.55249 11.6971C3.49749 12.3321 3.75249 14.5701 3.95349 15.2156C4.49849 16.9306 5.47849 18.3666 6.75349 19.6136C7.06549 19.9136 7.39949 20.1926 7.74449 20.4596C7.84449 20.4596 7.85599 20.3706 7.87799 20.3036C7.92186 20.1614 7.95528 20.0162 7.97799 19.8691C8.07799 19.3126 8.13399 18.7556 8.20049 18.1991L8.07799 2.5441H8.07349Z" fill="#6CAC48"/>
<path d="M8.62001 20.95C8.64251 20.694 8.77001 20.4825 8.89851 20.271C8.76501 20.216 8.66451 20.104 8.58651 19.981C8.51951 19.8695 8.46401 19.731 8.41951 19.6135C8.26351 19.146 8.22951 18.656 8.18551 18.177V17.887C8.13051 17.932 8.11851 18.31 8.11851 18.366C8.08501 18.878 8.01851 19.3795 7.91851 19.869C7.88501 20.069 7.86351 20.27 7.74051 20.448C7.74051 20.4705 7.74051 20.493 7.75151 20.526C7.95151 21.116 8.00751 21.7175 8.04151 22.33V22.5525C8.04151 22.8195 8.03051 22.764 8.25301 22.8525C8.34201 22.886 8.44301 22.8975 8.53151 22.964C8.59851 22.964 8.60951 22.909 8.60951 22.864L8.57601 22.4965V21.4715C8.56501 21.2935 8.59851 21.115 8.62101 20.948L8.62001 20.95Z" fill="#C2BFBF"/>
<path d="M17.0754 16.2931V17.3535C17.0742 17.3955 17.0766 17.4376 17.0825 17.4791C17.0963 17.6047 17.1734 17.6813 17.2868 17.7166C17.3925 17.7444 17.4999 17.7654 17.6084 17.7794C17.6712 17.7865 17.6921 17.8141 17.6993 17.8815C17.7064 18.1189 17.6855 18.147 17.4552 18.1327C16.9181 18.1046 16.3805 18.0979 15.8434 18.1327H15.7923C15.6249 18.1398 15.6111 18.1255 15.6111 17.9581C15.6111 17.93 15.6182 17.8953 15.6182 17.8672C15.6182 17.8161 15.653 17.7906 15.702 17.7906C15.8143 17.7768 15.9184 17.7487 16.0236 17.7278C16.1702 17.6931 16.2534 17.6022 16.2677 17.4557C16.2881 17.2953 16.2881 17.1279 16.2881 16.9671L16.2952 15.0974C16.2975 15.0431 16.2844 14.9894 16.2572 14.9424C16.2301 14.8954 16.1902 14.857 16.1421 14.8319C16.0158 14.7617 15.8823 14.7056 15.7438 14.6644C15.702 14.6506 15.6601 14.644 15.6254 14.6225C15.5233 14.5735 15.5207 14.4832 15.6182 14.427C15.653 14.4066 15.6948 14.3923 15.7367 14.3851C16.1601 14.3226 16.5761 14.2174 16.9784 14.0711C17.0621 14.0431 17.083 14.0507 17.0907 14.1339C17.0978 14.185 17.0907 14.2463 17.0835 14.2943C17.0698 14.3851 17.0698 14.4755 17.0698 14.5598C17.0698 14.5945 17.0769 14.6297 17.1116 14.6506C17.1463 14.6716 17.1816 14.6506 17.2137 14.6302C17.3603 14.5179 17.5068 14.4137 17.6671 14.3239C17.8969 14.1983 18.1419 14.0865 18.4074 14.0517C18.7291 14.0099 19.0073 14.0936 19.2519 14.3029C19.353 14.3934 19.4421 14.4966 19.5169 14.6098C19.5868 14.7119 19.5935 14.7145 19.6844 14.6445C19.9498 14.449 20.2286 14.2749 20.5288 14.1493C20.8428 14.0165 21.164 13.9961 21.4846 14.1074C21.8124 14.2258 22.036 14.4561 22.1687 14.7701C22.2811 15.0213 22.3291 15.2807 22.3291 15.5513V17.4209C22.3291 17.5465 22.3801 17.6252 22.5037 17.6864C22.6364 17.7375 22.783 17.763 22.9223 17.7911C23.0132 17.8115 23.0132 17.8115 23.0132 17.9034C22.9994 18.1332 22.9785 18.1475 22.7549 18.1332C22.1949 18.1018 21.6336 18.1018 21.0736 18.1332C20.9613 18.1403 20.9613 18.1403 20.9551 18.0285V17.9938C20.948 17.8049 20.948 17.8049 21.1298 17.764L21.311 17.715C21.3724 17.7006 21.4272 17.6659 21.4664 17.6165C21.5057 17.5671 21.5272 17.506 21.5275 17.4429L21.5479 16.9196L21.5341 15.5523C21.5288 15.4302 21.5029 15.3099 21.4575 15.1964C21.2829 14.7706 20.8995 14.6174 20.5293 14.6593C20.2501 14.6874 20.006 14.7987 19.7757 14.9595C19.7267 14.9942 19.692 15.0361 19.6992 15.1061C19.762 15.5528 19.7196 15.9995 19.7272 16.4458V17.4158C19.7272 17.5904 19.7972 17.6742 19.9647 17.716L20.2863 17.786C20.3353 17.7931 20.3629 17.8141 20.3629 17.8697V17.9208C20.3557 18.1163 20.3425 18.125 20.1464 18.123C19.5884 18.0949 19.0298 18.1025 18.4789 18.123C18.29 18.1301 18.2747 18.1092 18.2834 17.9187C18.2905 17.8064 18.3038 17.8003 18.409 17.7794L18.6387 17.7375C18.8429 17.6956 18.918 17.619 18.9318 17.4026L18.9522 16.9349L18.9384 15.5324C18.9246 15.3578 18.8874 15.1903 18.7919 15.03C18.6525 14.7716 18.4345 14.6394 18.1358 14.6251C17.8356 14.6047 17.5706 14.716 17.3189 14.8549C17.1443 14.957 17.0677 15.078 17.0815 15.2807V16.2992L17.0754 16.2931ZM30.2208 16.3355V17.3193C30.2219 17.3893 30.2265 17.4592 30.2346 17.5287C30.2376 17.575 30.2555 17.6191 30.2857 17.6544C30.3159 17.6896 30.3568 17.7141 30.4021 17.7242C30.5225 17.7593 30.6465 17.7804 30.7717 17.787C30.8417 17.7942 30.8554 17.8217 30.8626 17.8779V17.9269C30.8554 18.171 30.8279 18.199 30.5905 18.1853C30.0595 18.1505 29.53 18.1572 28.9996 18.1853L28.7953 18.1924C28.7535 18.1924 28.7443 18.172 28.7325 18.1434C28.7121 18.0468 28.7121 17.9469 28.7325 17.8503C28.7397 17.8085 28.7673 17.7993 28.8091 17.7875C28.9112 17.7737 28.998 17.7528 29.095 17.7365C29.2696 17.6946 29.3324 17.6241 29.3391 17.4434L29.3595 16.8573V15.1408C29.3595 15.0152 29.3105 14.9386 29.1992 14.8824C29.0736 14.8125 28.9408 14.764 28.8009 14.715C28.7591 14.7012 28.7172 14.6869 28.6825 14.6659C28.5916 14.6031 28.5804 14.5128 28.6687 14.4428C28.7083 14.4103 28.757 14.3907 28.8081 14.3867C29.2548 14.3167 29.6873 14.2192 30.1059 14.0517C30.155 14.0313 30.1759 14.0446 30.1968 14.0865C30.2178 14.1283 30.2249 14.1773 30.2172 14.2258L30.1968 14.5536C30.1968 14.5955 30.1764 14.6557 30.2106 14.6721C30.2525 14.7002 30.2806 14.6374 30.3153 14.621C30.5213 14.4482 30.7489 14.3028 30.9923 14.1886C31.2088 14.0865 31.4314 14.0211 31.6831 14.0354C32.1507 14.0635 32.4857 14.3009 32.7016 14.7124C32.814 14.9289 32.862 15.1658 32.8829 15.4103L32.9033 15.9209L32.9105 17.4628C32.9176 17.5813 32.9595 17.6584 33.0779 17.7002C33.2007 17.7411 33.3268 17.7715 33.4547 17.7911C33.567 17.8049 33.5732 17.8258 33.5803 17.9305V17.9652C33.5665 18.2026 33.5522 18.2092 33.3148 18.195C32.7943 18.167 32.2726 18.167 31.752 18.195C31.682 18.2021 31.6126 18.195 31.5478 18.2021C31.5059 18.2021 31.4778 18.195 31.4712 18.1531C31.4574 18.0622 31.4431 17.9718 31.464 17.8738C31.4712 17.8319 31.4921 17.811 31.5406 17.8039L31.8623 17.7528C31.9746 17.7247 32.0369 17.6507 32.0512 17.5486L32.065 17.353L32.0578 15.8949C32.0578 15.7274 32.0507 15.5599 32.016 15.3925C31.9322 15.0351 31.6601 14.7798 31.291 14.7441C30.9693 14.7093 30.6783 14.7931 30.4118 14.9672C30.279 15.0509 30.2229 15.1694 30.2229 15.3159V16.3697C30.2229 16.3493 30.2229 16.3493 30.23 16.3493L30.2208 16.3355Z" fill="#47474A"/>
<path d="M50.6566 14.3607C50.58 13.8512 50.3911 13.3978 50.0633 13.0001C49.7777 12.6487 49.408 12.3751 48.9886 12.2046C48.5495 12.0234 48.0813 11.9672 47.607 11.9534C47.4114 11.9463 44.7463 11.9881 44.5508 11.9534C44.5018 11.9463 44.467 11.9606 44.4384 12.0024C44.4037 12.0535 44.3685 12.1071 44.3476 12.1628C44.2638 12.3517 44.2638 12.3374 44.466 12.3649C44.6335 12.393 44.7938 12.4068 44.9546 12.4558C45.1012 12.5048 45.2058 12.5886 45.2405 12.7489C45.2543 12.8255 45.2686 15.2813 45.2686 16.4259L45.2405 17.2428C45.2334 17.3056 45.2268 17.3684 45.2058 17.4241C45.1777 17.5078 45.1292 17.5773 45.0455 17.613C44.9534 17.6564 44.854 17.6823 44.7524 17.6896C44.5635 17.71 44.536 17.7177 44.4732 17.927L44.4527 18.0036C44.439 18.0945 44.4456 18.1082 44.5365 18.1082L46.6226 18.1287L47.4395 18.1149L48.0047 18.0449C48.6465 17.9265 49.2188 17.661 49.7069 17.2357C49.9858 16.9894 50.2134 16.6907 50.3768 16.3565C50.5723 15.9659 50.6561 15.5396 50.677 15.1077C50.7117 14.8636 50.6974 14.6124 50.6566 14.3612V14.3607ZM49.6446 15.3512C49.6166 15.798 49.5262 16.2304 49.2959 16.621C49.0029 17.1305 48.5842 17.4864 48.0052 17.6115C47.754 17.6625 47.5028 17.6881 47.2394 17.6533C47.0505 17.6329 46.8697 17.6115 46.6951 17.5487C46.3811 17.4363 46.2693 17.2423 46.2627 16.936L46.2555 12.729C46.2555 12.4778 46.3679 12.4226 46.5486 12.415C46.8207 12.3945 47.1 12.4012 47.3721 12.4288C47.6618 12.4568 47.9461 12.5255 48.2166 12.633C48.4175 12.7167 48.6037 12.8322 48.768 12.9751C49.1448 13.2967 49.396 13.7001 49.5339 14.1749C49.6462 14.5588 49.6666 14.9494 49.6462 15.34L49.6446 15.3512ZM56.4555 16.0354C56.4555 15.9935 56.4555 15.9588 56.4484 15.9169C56.3856 15.533 56.1829 15.2399 55.8694 15.0168C55.6672 14.8703 55.437 14.7727 55.1996 14.7028C55.1577 14.689 55.123 14.6747 55.0811 14.6681C55.0883 14.6334 55.1092 14.6262 55.1301 14.6191C55.2695 14.5491 55.4023 14.4725 55.5207 14.3679C55.7372 14.1866 55.8781 13.963 55.9531 13.6909C55.995 13.5443 55.995 13.3978 55.9812 13.2441C55.9699 13.0643 55.9181 12.8894 55.8299 12.7324C55.7417 12.5753 55.6193 12.4401 55.4717 12.3369C55.15 12.0994 54.7738 12.0019 54.3832 11.9948C53.6296 11.981 52.8694 11.9948 52.1163 11.9948C51.8998 11.9948 51.6838 12.0086 51.4602 11.9744C51.4183 11.9672 51.3581 11.9539 51.3275 12.0024C51.2764 12.0933 51.2151 12.1837 51.1947 12.2883C51.1876 12.3374 51.2019 12.3649 51.2575 12.3721L51.739 12.442C51.9279 12.4701 52.0606 12.5748 52.0739 12.7422C52.0876 12.858 52.0944 12.9744 52.0943 13.091L52.0805 14.3954L52.0734 16.9768C52.0734 17.13 52.053 17.277 52.0244 17.4302C52.0175 17.4788 51.9967 17.5245 51.9646 17.5616C51.9324 17.5987 51.8903 17.6258 51.8431 17.6395C51.7037 17.6814 51.571 17.7233 51.4245 17.7233C51.3853 17.7196 51.346 17.7293 51.3131 17.7508C51.2802 17.7723 51.2555 17.8044 51.2432 17.8417C51.2151 17.9045 51.1922 17.9745 51.1804 18.0373C51.1666 18.121 51.1876 18.1496 51.2713 18.1394C51.3341 18.1322 53.6367 18.1884 54.0692 18.1465C54.3275 18.1185 54.5797 18.0837 54.8366 18.0072C55.2756 17.8678 55.681 17.6651 56.0017 17.323C56.2671 17.0437 56.4203 16.7088 56.4341 16.3182C56.4545 16.2273 56.4545 16.137 56.4545 16.0389L56.4555 16.0354ZM53.0715 13.1762L53.092 12.6182C53.092 12.5135 53.1338 12.465 53.2385 12.4436C53.406 12.4088 53.5734 12.4231 53.7409 12.4298C53.9083 12.4436 54.0687 12.4645 54.2361 12.5135C54.5425 12.6044 54.7804 12.779 54.9203 13.0716C54.9837 13.2046 55.017 13.35 55.0178 13.4974C55.0249 13.6929 55.0106 13.8813 54.9341 14.0692C54.8156 14.3275 54.6277 14.495 54.3551 14.544C54.0824 14.593 53.3084 14.5721 53.19 14.5721C53.0853 14.5721 53.0777 14.5583 53.0777 14.4536V13.7965C53.0613 13.5922 53.0589 13.387 53.0705 13.1823L53.0715 13.1762ZM55.3384 16.9299C55.22 17.2439 55.0035 17.4609 54.6967 17.5783C54.5292 17.6411 54.3617 17.6804 54.1861 17.6692C53.9696 17.662 53.7536 17.6692 53.5377 17.6273C53.2446 17.5645 53.1119 17.2852 53.0909 17.083C53.0562 16.7272 53.0772 16.3642 53.0705 16.0992V15.1781C53.0705 15.0658 53.0843 15.0316 53.2033 15.0316L53.8593 15.0387L54.3061 15.0898C54.6201 15.1597 54.906 15.2787 55.1296 15.5222C55.3109 15.7178 55.4089 15.9547 55.4298 16.213C55.4502 16.4571 55.437 16.6945 55.3461 16.9248L55.3384 16.9299Z" fill="#C2BFBF"/>
<path d="M37.6102 14.8279L37.7914 14.856C37.987 14.8632 38.2173 14.7932 38.2867 14.5211C38.325 14.3911 38.325 14.2528 38.2867 14.1228C38.2448 14.1228 38.2239 14.1576 38.203 14.1719C38.0983 14.2556 37.9798 14.3046 37.8542 14.3184C37.603 14.3465 37.3518 14.3322 37.1078 14.2418L36.7657 14.1233C36.5271 14.0452 36.2761 14.0123 36.0254 14.0263C35.6695 14.0544 35.3346 14.1729 35.0206 14.3403C34.6857 14.5216 34.4488 14.7937 34.3365 15.1639C34.2737 15.3804 34.2665 15.603 34.2946 15.8266C34.3645 16.3361 34.6295 16.692 35.1038 16.8804C35.1319 16.8875 35.1529 16.9008 35.1804 16.9085C35.2432 16.9432 35.2504 16.9784 35.1942 17.0269L35.0196 17.1454L34.6009 17.4037C34.4963 17.4665 34.4825 17.516 34.5172 17.6268C34.5587 17.7572 34.636 17.8732 34.7403 17.9618C34.8361 18.0439 34.9445 18.11 35.0615 18.1573C35.1381 18.192 35.1381 18.2084 35.0686 18.2696L34.6704 18.5555C34.5376 18.6577 34.4049 18.7598 34.2936 18.8905C34.2162 18.9733 34.1604 19.0739 34.1312 19.1835C34.102 19.293 34.1002 19.4081 34.1261 19.5185C34.178 19.7607 34.3048 19.9804 34.4886 20.1464C34.6701 20.3145 34.8907 20.4343 35.1304 20.4952C35.521 20.6075 35.9258 20.6136 36.3236 20.537C36.8954 20.4324 37.3958 20.1796 37.7889 19.7487C38.061 19.4628 38.2213 19.1279 38.2356 18.7276C38.2509 18.4961 38.1835 18.2667 38.0455 18.0802C37.9075 17.8937 37.7079 17.7622 37.482 17.709L37.1052 17.6391L35.9539 17.537C35.8283 17.5298 35.7027 17.5089 35.5981 17.4461C35.4653 17.3624 35.4306 17.202 35.5143 17.0974C35.5771 17.0208 35.6537 16.9718 35.7517 16.9646L35.9749 16.9442C36.4161 16.8993 36.8303 16.7106 37.1537 16.4071C37.3264 16.2473 37.4499 16.0414 37.5096 15.8138C37.5933 15.5136 37.5933 15.2011 37.5234 14.8948C37.503 14.8182 37.5096 14.8111 37.6071 14.8249L37.6102 14.8279ZM35.8998 18.3033C35.9417 18.3105 35.9835 18.3033 36.0254 18.3033C36.3185 18.3171 36.6187 18.338 36.9046 18.4156C36.9979 18.4432 37.0889 18.4782 37.1767 18.5203C37.456 18.6735 37.5607 18.939 37.5254 19.2249C37.4836 19.5389 37.309 19.762 37.0368 19.909C36.8556 20.0111 36.6529 20.0556 36.4436 20.0765C36.367 20.0837 36.297 20.0765 36.2204 20.0765C35.9764 20.0837 35.739 20.0561 35.5087 19.9581C35.3484 19.8953 35.2157 19.8049 35.0972 19.6788C34.8532 19.4347 34.7398 18.988 35.1044 18.625C35.3275 18.4207 35.5792 18.2763 35.8998 18.3033ZM36.6953 16.1263C36.5487 16.4959 36.2276 16.6077 35.907 16.5587C35.6139 16.5169 35.3974 16.3565 35.2585 16.0911C35.0773 15.7352 35.0288 15.3661 35.1329 14.9816C35.2095 14.6957 35.3841 14.4792 35.691 14.4302C36.0816 14.3602 36.4568 14.5001 36.6539 14.8907C36.756 15.0796 36.8004 15.3094 36.8004 15.6372C36.7933 15.7699 36.7657 15.9512 36.6958 16.1258L36.6953 16.1263ZM27.9044 15.6515C27.8416 15.2747 27.7022 14.9326 27.4439 14.6467C27.0599 14.2209 26.5718 14.034 26.0204 14.0325C25.539 14.0253 25.0861 14.1652 24.6807 14.4164C24.2822 14.6549 23.9901 15.0369 23.8643 15.484C23.7459 15.8889 23.752 16.3009 23.8439 16.7119C24.088 17.8147 24.9396 18.2885 25.9576 18.2191C26.2578 18.1987 26.5438 18.1006 26.8154 17.9679C27.2203 17.779 27.5133 17.4793 27.7155 17.0815C27.8758 16.7538 27.9453 16.4045 27.9386 16.0068L27.9039 15.651L27.9044 15.6515ZM26.9139 17.2005C26.864 17.3575 26.7694 17.4965 26.6418 17.6006C26.5141 17.7047 26.3589 17.7694 26.195 17.7866C25.8887 17.8285 25.6018 17.7519 25.3439 17.5702C25.1578 17.4332 25.0071 17.2538 24.9043 17.0468C24.6184 16.4607 24.5694 15.847 24.7154 15.219C24.7624 15.0247 24.8641 14.8478 25.0085 14.7095C25.2668 14.4721 25.5665 14.4164 25.902 14.4864C26.2236 14.5563 26.4672 14.7304 26.6678 14.9959C26.8685 15.2614 26.9609 15.5677 27.0165 15.8894C27.0446 16.0497 27.0446 16.2172 27.0513 16.3218C27.0513 16.6568 27.0232 16.9345 26.9185 17.201L26.9139 17.2005ZM43.1498 15.7076C43.0987 15.3027 42.9476 14.9331 42.6612 14.6263C42.2844 14.2147 41.7958 14.0401 41.252 14.033C40.7844 14.0258 40.3519 14.1586 39.9542 14.3888C39.5074 14.6543 39.2006 15.0306 39.0821 15.5402C38.9407 16.0961 39 16.6841 39.2496 17.2005C39.4794 17.6891 39.8704 18.0031 40.3871 18.1425C40.959 18.2957 41.5037 18.2262 42.0337 17.9679C42.4942 17.7448 42.822 17.3961 43.0104 16.9212C43.1227 16.642 43.1636 16.3423 43.1707 15.993C43.1779 15.9302 43.1636 15.8184 43.1503 15.7071L43.1498 15.7076ZM42.1869 17.1101C42.0745 17.4869 41.8382 17.731 41.4404 17.7871C41.1474 17.829 40.8686 17.7591 40.6169 17.5916C40.4004 17.4451 40.2472 17.2495 40.1354 17.0198C40.0098 16.7757 39.9399 16.5174 39.9123 16.2524C39.8704 15.9246 39.8704 15.604 39.947 15.2757C39.9616 15.211 39.9827 15.1478 40.0098 15.0873C40.2054 14.5987 40.6378 14.3756 41.1474 14.4874C41.4894 14.564 41.7473 14.7529 41.9428 15.0388C42.1317 15.3181 42.2221 15.6249 42.2645 15.9578C42.2849 16.0905 42.2926 16.2299 42.2849 16.3484C42.2849 16.6205 42.2645 16.8717 42.1828 17.1158L42.1869 17.1101Z" fill="#47474A"/>
</svg>
