<svg width="45" height="48" viewBox="0 0 45 48" fill="none" xmlns="http://www.w3.org/2000/svg">
<path d="M21.0264 0.012917C20.9296 0.0222998 20.6217 0.0551395 20.3446 0.0785965C13.9531 0.693169 7.96628 4.37122 4.17449 10.0243C2.06305 13.1676 0.71261 16.733 0.202346 20.5096C0.0219941 21.8279 0 22.2173 0 24.0047C0 25.7921 0.0219941 26.1815 0.202346 27.4998C1.42522 36.512 7.43842 44.0839 15.5938 46.8893C17.0543 47.3913 18.5938 47.7338 20.3446 47.9402C21.0264 48.0199 23.9736 48.0199 24.6554 47.9402C27.6774 47.5836 30.2375 46.7861 32.7625 45.4115C33.1496 45.2004 33.2243 45.1441 33.1716 45.0972C33.1364 45.069 31.4868 42.7093 29.5073 39.8569L25.9091 34.6729L21.4003 27.5561C18.9194 23.6435 16.8783 20.4439 16.8607 20.4439C16.8431 20.4392 16.8255 23.6012 16.8167 27.4623C16.8035 34.2226 16.7991 34.4947 16.7199 34.6542C16.6056 34.884 16.5176 34.9779 16.3328 35.0811C16.1921 35.1561 16.0689 35.1702 15.4047 35.1702H14.6437L14.4413 35.0342C14.3094 34.945 14.2126 34.8277 14.1466 34.6917L14.0543 34.4806L14.0631 25.0743L14.0762 15.6634L14.2126 15.4804C14.283 15.3819 14.4326 15.2553 14.5381 15.1943C14.7185 15.1004 14.7889 15.0911 15.5499 15.0911C16.4472 15.0911 16.5968 15.1286 16.8299 15.4007C16.8959 15.4757 19.3372 19.3978 22.2581 24.122C25.1789 28.8462 29.173 35.2969 31.1349 38.4636L34.6979 44.2199L34.8783 44.0932C36.4751 42.9861 38.1642 41.4098 39.5015 39.7678C42.3475 36.2821 44.1818 32.0317 44.7977 27.4998C44.978 26.1815 45 25.7921 45 24.0047C45 22.2173 44.978 21.8279 44.7977 20.5096C43.5748 11.4974 37.5616 3.92554 29.4062 1.12009C27.9677 0.622798 26.4369 0.280326 24.7214 0.0739051C24.2991 0.0269911 21.3915 -0.0246142 21.0264 0.012917ZM30.2375 14.5281C30.4487 14.6407 30.6202 14.8565 30.6818 15.0817C30.717 15.2036 30.7258 17.8121 30.717 23.6904L30.7038 32.1255L29.3094 29.8455L27.9106 27.5655V21.4338C27.9106 17.4696 27.9282 15.2412 27.9545 15.1333C28.0249 14.8706 28.1789 14.6641 28.39 14.5422C28.5704 14.4436 28.6364 14.4343 29.327 14.4343C29.978 14.4343 30.0924 14.4436 30.2375 14.5281Z" fill="#2C3333"/>
</svg>
