<svg width="42" height="39" viewBox="0 0 42 39" fill="none" xmlns="http://www.w3.org/2000/svg">
<path d="M34.3055 12.6384C33.8625 12.4817 33.4195 12.3337 32.9766 12.1945C33.0504 11.8724 33.116 11.5503 33.1816 11.2282C34.1906 6.04011 33.5262 1.87046 31.2867 0.49509C29.1293 -0.819348 25.6102 0.54732 22.05 3.83777C21.6973 4.15985 21.3527 4.49934 21.0246 4.83883C20.8031 4.6125 20.5734 4.38618 20.3438 4.16856C16.6113 0.651778 12.8707 -0.828053 10.6313 0.556025C8.48203 1.87917 7.84219 5.80508 8.74453 10.7146C8.83477 11.2021 8.9332 11.6809 9.04805 12.1684C8.52305 12.325 8.00625 12.4991 7.52227 12.6819C3.1418 14.2923 0 16.8342 0 19.4631C0 22.179 3.34688 24.9036 7.89961 26.5575C8.26875 26.6881 8.63789 26.8187 9.01523 26.9318C8.89219 27.4541 8.78555 27.9677 8.68711 28.4987C7.82578 33.3299 8.49844 37.1601 10.6477 38.4745C12.8625 39.8325 16.5867 38.4397 20.2125 35.0709C20.4996 34.8011 20.7867 34.5225 21.0738 34.2266C21.4348 34.6009 21.8121 34.9578 22.1895 35.306C25.7004 38.5094 29.1703 39.8064 31.3113 38.4919C33.5262 37.134 34.248 33.0166 33.3129 28.0026C33.2391 27.6195 33.157 27.2278 33.0668 26.8274C33.3293 26.749 33.5836 26.662 33.8379 26.5749C38.5711 24.9123 42 22.2225 42 19.4631C42 16.8255 38.768 14.2662 34.3055 12.6384ZM23.2066 5.24796C26.2582 2.42758 29.1047 1.32206 30.4008 2.1142C31.7871 2.95857 32.3203 6.37089 31.4508 10.8539C31.3934 11.1499 31.3359 11.4371 31.2621 11.7244C29.441 11.2892 27.5953 10.9758 25.7414 10.8017C24.675 9.18257 23.5102 7.6331 22.2469 6.17939C22.5668 5.8573 22.8785 5.55263 23.2066 5.24796ZM13.7156 23.9809C14.134 24.7382 14.5605 25.4955 15.0117 26.2355C13.732 26.0875 12.4605 25.8699 11.2055 25.5826C11.5664 24.3291 12.0176 23.0321 12.5426 21.7089C12.9199 22.4749 13.3055 23.2323 13.7156 23.9809ZM11.2301 13.5089C12.4113 13.2303 13.6664 13.004 14.9707 12.8299C14.5359 13.5524 14.1094 14.2923 13.7074 15.041C13.3055 15.7809 12.9117 16.5382 12.5426 17.3042C12.0258 16.0072 11.591 14.7363 11.2301 13.5089ZM13.4777 19.5066C14.0191 18.3053 14.6098 17.1301 15.2332 15.9724C15.8566 14.8146 16.5293 13.6917 17.2348 12.5862C18.4652 12.4904 19.7203 12.4382 21 12.4382C22.2797 12.4382 23.543 12.4904 24.7652 12.5862C25.4625 13.683 26.127 14.8059 26.7586 15.955C27.3902 17.104 27.9809 18.2792 28.5387 19.4718C27.9891 20.673 27.3984 21.8569 26.7668 23.0234C26.1434 24.1811 25.4789 25.304 24.7816 26.4183C23.5594 26.514 22.2879 26.5575 21 26.5575C19.7121 26.5575 18.4652 26.514 17.2594 26.4357C16.5457 25.3301 15.873 24.1985 15.2414 23.0408C14.6098 21.883 14.0273 20.7079 13.4777 19.5066ZM28.2926 23.9635C28.7109 23.1974 29.1047 22.4227 29.4902 21.6393C30.0152 22.9015 30.4746 24.1811 30.8766 25.4955C29.6051 25.8002 28.3172 26.0352 27.0211 26.1919C27.4641 25.4607 27.8824 24.7121 28.2926 23.9635ZM29.4738 17.3042C29.0883 16.5382 28.6945 15.7722 28.2844 15.0236C27.8824 14.2836 27.4641 13.5524 27.0293 12.8299C28.35 13.004 29.6133 13.2391 30.7945 13.5263C30.4172 14.8146 29.9742 16.0681 29.4738 17.3042ZM21.0164 7.51123C21.8777 8.50359 22.6898 9.54818 23.4445 10.6276C21.8203 10.5492 20.1879 10.5492 18.5637 10.6276C19.3676 9.50465 20.1961 8.46007 21.0164 7.51123ZM11.5008 2.17513C12.8789 1.32206 15.9387 2.54074 19.1625 5.57004C19.3676 5.76155 19.5727 5.97047 19.7859 6.17939C18.5145 7.6331 17.3414 9.18257 16.2668 10.8017C14.4129 10.9758 12.5754 11.2805 10.7543 11.707C10.6477 11.263 10.5574 10.8104 10.4672 10.3577C9.69609 6.14457 10.2047 2.96728 11.5008 2.17513ZM9.49102 25.1212C9.14648 25.0168 8.81016 24.9036 8.47383 24.7817C6.72656 24.1985 4.74141 23.2758 3.30586 22.0658C2.47734 21.4565 1.91953 20.5163 1.76367 19.4631C1.76367 17.8701 4.35586 15.8331 8.09648 14.449C8.56406 14.2749 9.03984 14.1182 9.51562 13.9703C10.0734 15.8592 10.7461 17.7134 11.5254 19.5066C10.7379 21.3259 10.057 23.2062 9.49102 25.1212ZM19.0559 33.652C17.7023 34.9665 16.1355 36.0111 14.4293 36.7249C13.5187 37.1862 12.4688 37.2297 11.5336 36.838C10.2293 36.0372 9.68789 32.9643 10.4262 28.8295C10.5164 28.342 10.6148 27.8546 10.7297 27.3758C12.5672 27.7936 14.4211 28.0809 16.2996 28.2289C17.3824 29.8567 18.5719 31.4149 19.8434 32.8773C19.5809 33.1471 19.3184 33.4083 19.0559 33.652ZM21.0656 31.5367C20.2289 30.5792 19.3922 29.5172 18.5801 28.3769C19.3676 28.4117 20.1797 28.4291 21 28.4291C21.8449 28.4291 22.6734 28.4117 23.4937 28.3682C22.7391 29.4737 21.927 30.527 21.0656 31.5367ZM31.7871 34.1482C31.7133 35.2102 31.2211 36.2026 30.4336 36.8728C29.1293 37.6737 26.3484 36.6291 23.3461 33.8958C23.0016 33.5824 22.657 33.2429 22.3043 32.8947C23.5594 31.4236 24.716 29.8654 25.766 28.2289C27.6445 28.0635 29.5148 27.7588 31.3605 27.3149C31.4426 27.6718 31.5164 28.0287 31.582 28.3769C31.984 30.2571 32.0496 32.2157 31.7871 34.1482ZM33.2801 24.7904C33.0504 24.8688 32.8207 24.9471 32.5828 25.0168C32.0086 23.1191 31.3031 21.265 30.491 19.4631C31.2785 17.6873 31.943 15.8592 32.5008 13.9877C32.9273 14.1182 33.3375 14.2575 33.7313 14.3968C37.5539 15.7896 40.2363 17.8613 40.2363 19.4456C40.2363 21.1518 37.3734 23.3541 33.2801 24.7904ZM21 23.4847C23.0754 23.4847 24.757 21.7002 24.757 19.4979C24.757 17.2955 23.0754 15.511 21 15.511C18.9246 15.511 17.243 17.2955 17.243 19.4979C17.243 21.7002 18.9246 23.4847 21 23.4847Z" fill="#2ECDFF"/>
</svg>
