<svg width="39" height="20" viewBox="0 0 42 26" fill="none" xmlns="http://www.w3.org/2000/svg">
<path fill-rule="evenodd" clip-rule="evenodd" d="M10.5 8.7999C11.8998 3.20012 15.4002 0.399902 21 0.399902C29.4 0.399902 30.45 6.6999 34.65 7.7499C37.4502 8.45012 39.9 7.40012 42 4.5999C40.6002 10.1997 37.0998 12.9999 31.5 12.9999C23.1 12.9999 22.05 6.6999 17.85 5.6499C15.0498 4.94968 12.6 5.99968 10.5 8.7999ZM0 21.3999C1.39978 15.8001 4.90022 12.9999 10.5 12.9999C18.9 12.9999 19.95 19.2999 24.15 20.3499C26.9502 21.0501 29.4 20.0001 31.5 17.1999C30.1002 22.7997 26.5998 25.5999 21 25.5999C12.6 25.5999 11.55 19.2999 7.35 18.2499C4.54978 17.5497 2.1 18.5997 0 21.3999Z" fill="url(#paint0_linear_44_98)"/>
<defs>
<linearGradient id="paint0_linear_44_98" x1="1.04368e-06" y1="-21.9999" x2="42" y2="47.9997" gradientUnits="userSpaceOnUse">
<stop stop-color="#2383AE"/>
<stop offset="1" stop-color="#6DD7B9"/>
</linearGradient>
</defs>
</svg>
