<svg width="345" height="220" viewBox="0 0 345 220" fill="none" xmlns="http://www.w3.org/2000/svg">
<path d="M152.718 40.4918L150.955 41.4365L152.718 40.4918ZM159.545 124.079L160.318 125.924L159.545 124.079ZM216.101 90.0981L216.682 88.1846L212.383 86.8773L214.29 90.9467L216.101 90.0981ZM242.001 84.8806L243.983 84.6091L240.109 84.2348L242.001 84.8806ZM223.263 166.431L225.122 165.693L223.263 166.431ZM262.969 80.6569L264.952 80.9128L265.309 78.1452L262.574 78.6963L262.969 80.6569ZM280.236 77.1786L281.614 78.6277L286.639 73.8487L279.841 75.218L280.236 77.1786ZM289.116 75.3897L290.579 74.0258L289.817 73.2084L288.721 73.4291L289.116 75.3897ZM306.384 71.9114L308.322 71.419L307.325 67.4943L304.814 70.6713L306.384 71.9114ZM324.54 69.7424C325.181 68.8427 324.971 67.5938 324.071 66.9531C323.171 66.3123 321.922 66.5222 321.282 67.4219L324.54 69.7424ZM151.17 78.9028C159.286 73.7883 165.357 59.842 154.48 39.547L150.955 41.4365C161.136 60.4334 154.891 71.8299 149.037 75.5187L151.17 78.9028ZM154.48 39.547C153.698 38.0864 152.318 37.0791 150.757 36.379C149.183 35.6731 147.248 35.1979 145.072 34.9008C140.716 34.3062 135.055 34.3826 128.585 35.0444C115.623 36.3704 99.0621 40.0845 82.4567 45.8863C65.8558 51.6865 49.1019 59.6108 35.8083 69.4125C22.5497 79.1884 12.4838 91.0195 9.75774 104.696L13.6806 105.478C16.1249 93.2147 25.2757 82.1482 38.1821 72.632C51.0536 63.1415 67.4131 55.3795 83.776 49.6624C100.134 43.947 116.388 40.313 128.992 39.0236C135.305 38.3778 140.616 38.3296 144.531 38.8641C146.491 39.1316 148.018 39.5343 149.12 40.0286C150.235 40.5287 150.744 41.0438 150.955 41.4365L154.48 39.547ZM9.75774 104.696C7.04849 118.289 10.7421 128.591 19.2223 135.649C27.5404 142.573 40.2059 146.158 55.0801 147.155C84.883 149.152 124.742 140.832 160.318 125.924L158.772 122.234C123.573 136.984 84.3491 145.108 55.3476 143.164C40.8196 142.191 29.1526 138.71 21.7812 132.575C14.5721 126.574 11.2195 117.826 13.6806 105.478L9.75774 104.696ZM160.318 125.924C188.649 114.051 204.139 105.849 211.978 100.371C213.947 98.9951 215.471 97.7649 216.608 96.6647C217.728 95.5816 218.561 94.5406 219.036 93.5284C219.518 92.5002 219.728 91.2618 219.138 90.0959C218.576 88.9856 217.537 88.4445 216.682 88.1846L215.519 92.0116C215.849 92.1119 215.7 92.1614 215.569 91.9016C215.409 91.5863 215.589 91.4581 215.415 91.8296C215.233 92.217 214.783 92.865 213.827 93.7896C212.889 94.697 211.545 95.7933 209.687 97.0922C202.217 102.312 187.06 110.38 158.772 122.234L160.318 125.924ZM214.29 90.9467C215.51 93.5521 217.209 96.3888 219.264 98.7292C221.289 101.036 223.845 103.071 226.815 103.674C229.955 104.312 233.119 103.268 236.01 100.302C238.825 97.4148 241.466 92.6431 243.894 85.5264L240.109 84.2348C237.759 91.12 235.356 95.2425 233.146 97.5101C231.012 99.699 229.17 100.071 227.611 99.7542C225.882 99.4028 224.045 98.112 222.27 96.0902C220.525 94.1025 219.017 91.6086 217.912 89.2495L214.29 90.9467ZM240.02 85.1521C243.452 110.203 242.935 140.896 239.514 160.001C238.66 164.772 237.638 168.742 236.486 171.693C235.286 174.766 234.108 176.292 233.224 176.79C232.882 176.981 232.615 177.006 232.312 176.923C231.942 176.821 231.362 176.508 230.594 175.698C229.037 174.057 227.185 170.892 225.122 165.693L221.404 167.168C223.514 172.487 225.593 176.239 227.693 178.452C228.753 179.57 229.934 180.418 231.253 180.78C232.638 181.16 233.986 180.95 235.184 180.276C237.379 179.042 238.975 176.314 240.212 173.148C241.496 169.859 242.574 165.606 243.452 160.706C246.956 141.133 247.464 110.015 243.983 84.6091L240.02 85.1521ZM225.122 165.693C225.038 165.48 224.924 164.971 224.875 164.054C224.828 163.176 224.846 162.06 224.938 160.721C225.122 158.046 225.59 154.608 226.334 150.65C227.822 142.737 230.386 132.874 233.869 123.102C237.358 113.317 241.736 103.713 246.819 96.2643C251.951 88.7454 257.552 83.7883 263.364 82.6175L262.574 78.6963C255.189 80.184 248.817 86.2419 243.516 94.0094C238.166 101.847 233.651 111.801 230.102 121.759C226.547 131.73 223.929 141.795 222.403 149.911C221.641 153.967 221.146 157.568 220.948 160.447C220.849 161.885 220.822 163.174 220.88 164.267C220.937 165.32 221.078 166.346 221.404 167.168L225.122 165.693ZM260.985 80.401C260.805 81.8019 260.82 83.4749 261.369 84.9414C261.957 86.5119 263.216 87.9241 265.342 88.2149C267.246 88.4754 269.466 87.7677 271.987 86.2956C274.561 84.7926 277.723 82.3294 281.614 78.6277L278.858 75.7295C275.081 79.3223 272.171 81.556 269.97 82.8415C267.716 84.1579 266.459 84.3304 265.884 84.2518C265.531 84.2035 265.309 84.0572 265.115 83.5393C264.883 82.9172 264.816 81.9715 264.952 80.9128L260.985 80.401ZM279.841 75.218C279.838 75.2185 279.836 75.2191 279.833 75.2196C279.83 75.2202 279.827 75.2207 279.825 75.2213C279.822 75.2219 279.819 75.2224 279.816 75.223C279.813 75.2235 279.811 75.2241 279.808 75.2247C279.805 75.2252 279.802 75.2258 279.799 75.2264C279.796 75.227 279.794 75.2275 279.791 75.2281C279.788 75.2287 279.785 75.2293 279.782 75.2299C279.779 75.2304 279.776 75.231 279.773 75.2316C279.77 75.2322 279.768 75.2328 279.765 75.2334C279.762 75.234 279.759 75.2346 279.756 75.2352C279.753 75.2357 279.75 75.2363 279.747 75.2369C279.744 75.2375 279.741 75.2381 279.738 75.2387C279.735 75.2393 279.732 75.24 279.729 75.2406C279.726 75.2412 279.723 75.2418 279.72 75.2424C279.717 75.243 279.714 75.2436 279.711 75.2442C279.708 75.2448 279.705 75.2455 279.702 75.2461C279.699 75.2467 279.695 75.2473 279.692 75.2479C279.689 75.2486 279.686 75.2492 279.683 75.2498C279.68 75.2504 279.677 75.2511 279.674 75.2517C279.671 75.2523 279.667 75.2529 279.664 75.2536C279.661 75.2542 279.658 75.2548 279.655 75.2555C279.652 75.2561 279.649 75.2568 279.645 75.2574C279.642 75.258 279.639 75.2587 279.636 75.2593C279.633 75.26 279.629 75.2606 279.626 75.2612C279.623 75.2619 279.62 75.2625 279.617 75.2632C279.613 75.2638 279.61 75.2645 279.607 75.2651C279.604 75.2658 279.6 75.2664 279.597 75.2671C279.594 75.2678 279.591 75.2684 279.587 75.2691C279.584 75.2697 279.581 75.2704 279.578 75.271C279.574 75.2717 279.571 75.2724 279.568 75.273C279.564 75.2737 279.561 75.2744 279.558 75.275C279.554 75.2757 279.551 75.2764 279.548 75.277C279.545 75.2777 279.541 75.2784 279.538 75.279C279.535 75.2797 279.531 75.2804 279.528 75.2811C279.525 75.2817 279.521 75.2824 279.518 75.2831C279.514 75.2838 279.511 75.2844 279.508 75.2851C279.504 75.2858 279.501 75.2865 279.498 75.2872C279.494 75.2878 279.491 75.2885 279.487 75.2892C279.484 75.2899 279.481 75.2906 279.477 75.2913C279.474 75.292 279.47 75.2926 279.467 75.2933C279.464 75.294 279.46 75.2947 279.457 75.2954C279.453 75.2961 279.45 75.2968 279.446 75.2975C279.443 75.2982 279.44 75.2989 279.436 75.2996C279.433 75.3002 279.429 75.3009 279.426 75.3016C279.422 75.3023 279.419 75.303 279.415 75.3037C279.412 75.3044 279.408 75.3051 279.405 75.3058C279.401 75.3065 279.398 75.3072 279.395 75.3079C279.391 75.3086 279.388 75.3093 279.384 75.31C279.381 75.3107 279.377 75.3114 279.374 75.3121C279.37 75.3128 279.367 75.3136 279.363 75.3143C279.36 75.315 279.356 75.3157 279.353 75.3164C279.349 75.3171 279.346 75.3178 279.342 75.3185C279.338 75.3192 279.335 75.3199 279.331 75.3206C279.328 75.3213 279.324 75.322 279.321 75.3228C279.317 75.3235 279.314 75.3242 279.31 75.3249C279.307 75.3256 279.303 75.3263 279.3 75.327C279.296 75.3277 279.293 75.3285 279.289 75.3292C279.286 75.3299 279.282 75.3306 279.278 75.3313C279.275 75.332 279.271 75.3327 279.268 75.3335C279.264 75.3342 279.261 75.3349 279.257 75.3356C279.253 75.3363 279.25 75.337 279.246 75.3378C279.243 75.3385 279.239 75.3392 279.236 75.3399C279.232 75.3406 279.229 75.3414 279.225 75.3421C279.221 75.3428 279.218 75.3435 279.214 75.3442C279.211 75.3449 279.207 75.3457 279.204 75.3464C279.2 75.3471 279.196 75.3478 279.193 75.3485C279.189 75.3493 279.186 75.35 279.182 75.3507C279.179 75.3514 279.175 75.3522 279.171 75.3529C279.168 75.3536 279.164 75.3543 279.161 75.355C279.157 75.3558 279.154 75.3565 279.15 75.3572C279.146 75.3579 279.143 75.3586 279.139 75.3594C279.136 75.3601 279.132 75.3608 279.128 75.3615C279.125 75.3622 279.121 75.363 279.118 75.3637C279.114 75.3644 279.111 75.3651 279.107 75.3658C279.103 75.3666 279.1 75.3673 279.096 75.368C279.093 75.3687 279.089 75.3695 279.086 75.3702C279.082 75.3709 279.078 75.3716 279.075 75.3723C279.071 75.3731 279.068 75.3738 279.064 75.3745C279.061 75.3752 279.057 75.3759 279.053 75.3766C279.05 75.3774 279.046 75.3781 279.043 75.3788C279.039 75.3795 279.036 75.3802 279.032 75.381C279.028 75.3817 279.025 75.3824 279.021 75.3831C279.018 75.3838 279.014 75.3845 279.011 75.3853C279.007 75.386 279.003 75.3867 279 75.3874C278.996 75.3881 278.993 75.3888 278.989 75.3896C278.986 75.3903 278.982 75.391 278.979 75.3917C278.975 75.3924 278.972 75.3931 278.968 75.3938C278.964 75.3946 278.961 75.3953 278.957 75.396C278.954 75.3967 278.95 75.3974 278.947 75.3981C278.943 75.3988 278.94 75.3995 278.936 75.4002C278.933 75.4009 278.929 75.4017 278.926 75.4024C278.922 75.4031 278.919 75.4038 278.915 75.4045C278.912 75.4052 278.908 75.4059 278.905 75.4066C278.901 75.4073 278.898 75.408 278.894 75.4087C278.891 75.4094 278.887 75.4101 278.884 75.4108C278.88 75.4115 278.877 75.4122 278.873 75.4129C278.87 75.4136 278.866 75.4143 278.863 75.415C278.859 75.4157 278.856 75.4164 278.852 75.4171C278.849 75.4178 278.846 75.4185 278.842 75.4192C278.839 75.4199 278.835 75.4206 278.832 75.4213C278.828 75.422 278.825 75.4227 278.821 75.4234C278.818 75.4241 278.815 75.4248 278.811 75.4254C278.808 75.4261 278.804 75.4268 278.801 75.4275C278.797 75.4282 278.794 75.4289 278.791 75.4296C278.787 75.4302 278.784 75.4309 278.78 75.4316C278.777 75.4323 278.774 75.433 278.77 75.4337C278.767 75.4343 278.764 75.435 278.76 75.4357C278.757 75.4364 278.753 75.4371 278.75 75.4377C278.747 75.4384 278.743 75.4391 278.74 75.4398C278.737 75.4404 278.733 75.4411 278.73 75.4418C278.727 75.4424 278.723 75.4431 278.72 75.4438C278.717 75.4444 278.713 75.4451 278.71 75.4458C278.707 75.4464 278.704 75.4471 278.7 75.4478C278.697 75.4484 278.694 75.4491 278.69 75.4497C278.687 75.4504 278.684 75.4511 278.681 75.4517C278.677 75.4524 278.674 75.453 278.671 75.4537C278.668 75.4543 278.664 75.455 278.661 75.4556C278.658 75.4563 278.655 75.4569 278.652 75.4576C278.648 75.4582 278.645 75.4589 278.642 75.4595C278.639 75.4602 278.636 75.4608 278.632 75.4615C278.629 75.4621 278.626 75.4627 278.623 75.4634C278.62 75.464 278.617 75.4646 278.613 75.4653C278.61 75.4659 278.607 75.4666 278.604 75.4672C278.601 75.4678 278.598 75.4684 278.595 75.4691C278.591 75.4697 278.588 75.4703 278.585 75.4709C278.582 75.4716 278.579 75.4722 278.576 75.4728C278.573 75.4734 278.57 75.474 278.567 75.4747C278.564 75.4753 278.561 75.4759 278.558 75.4765C278.555 75.4771 278.552 75.4777 278.549 75.4783C278.545 75.479 278.542 75.4796 278.539 75.4802C278.536 75.4808 278.533 75.4814 278.53 75.482C278.528 75.4826 278.525 75.4832 278.522 75.4838C278.519 75.4844 278.516 75.485 278.513 75.4856C278.51 75.4861 278.507 75.4867 278.504 75.4873C278.501 75.4879 278.498 75.4885 278.495 75.4891C278.492 75.4897 278.489 75.4902 278.487 75.4908C278.484 75.4914 278.481 75.492 278.478 75.4926C278.475 75.4931 278.472 75.4937 278.469 75.4943C278.467 75.4949 278.464 75.4954 278.461 75.496C278.458 75.4966 278.455 75.4971 278.453 75.4977C278.45 75.4982 278.447 75.4988 278.444 75.4994C278.441 75.4999 278.439 75.5005 278.436 75.501C278.433 75.5016 278.43 75.5021 278.428 75.5027C278.425 75.5032 278.422 75.5038 278.42 75.5043C278.417 75.5049 278.414 75.5054 278.412 75.5059C278.409 75.5065 278.406 75.507 278.404 75.5075C278.401 75.5081 278.398 75.5086 278.396 75.5091C278.393 75.5097 278.39 75.5102 278.388 75.5107C278.385 75.5112 278.383 75.5117 278.38 75.5123C278.378 75.5128 278.375 75.5133 278.372 75.5138C278.37 75.5143 278.367 75.5148 278.365 75.5153C278.362 75.5158 278.36 75.5163 278.357 75.5169C278.355 75.5174 278.352 75.5179 278.35 75.5183C278.347 75.5188 278.345 75.5193 278.343 75.5198C278.34 75.5203 278.338 75.5208 278.335 75.5213C278.333 75.5218 278.331 75.5223 278.328 75.5227C278.326 75.5232 278.323 75.5237 278.321 75.5242C278.319 75.5246 278.316 75.5251 278.314 75.5256C278.312 75.526 278.309 75.5265 278.307 75.527C278.305 75.5274 278.303 75.5279 278.3 75.5283C278.298 75.5288 278.296 75.5293 278.294 75.5297C278.291 75.5302 278.289 75.5306 278.287 75.531C278.285 75.5315 278.282 75.5319 278.28 75.5324C278.278 75.5328 278.276 75.5332 278.274 75.5337C278.272 75.5341 278.27 75.5345 278.267 75.535C278.265 75.5354 278.263 75.5358 278.261 75.5362C278.259 75.5366 278.257 75.5371 278.255 75.5375C278.253 75.5379 278.251 75.5383 278.249 75.5387C278.247 75.5391 278.245 75.5395 278.243 75.5399C278.241 75.5403 278.239 75.5407 278.237 75.5411C278.235 75.5415 278.233 75.5419 278.231 75.5423C278.229 75.5426 278.227 75.543 278.226 75.5434C278.224 75.5438 278.222 75.5442 278.22 75.5445C278.218 75.5449 278.216 75.5453 278.214 75.5456C278.213 75.546 278.211 75.5464 278.209 75.5467C278.207 75.5471 278.205 75.5474 278.204 75.5478C278.202 75.5481 278.2 75.5485 278.199 75.5488C278.197 75.5492 278.195 75.5495 278.193 75.5499C278.192 75.5502 278.19 75.5505 278.189 75.5509C278.187 75.5512 278.185 75.5515 278.184 75.5518C278.182 75.5522 278.18 75.5525 278.179 75.5528C278.177 75.5531 278.176 75.5534 278.174 75.5537C278.173 75.554 278.171 75.5543 278.17 75.5546C278.168 75.5549 278.167 75.5552 278.165 75.5555C278.164 75.5558 278.162 75.5561 278.161 75.5564C278.16 75.5567 278.158 75.557 278.157 75.5572C278.155 75.5575 278.154 75.5578 278.153 75.5581C278.151 75.5583 278.15 75.5586 278.149 75.5589C278.147 75.5591 278.146 75.5594 278.145 75.5596C278.144 75.5599 278.142 75.5601 278.141 75.5604C278.14 75.5606 278.139 75.5609 278.138 75.5611C278.136 75.5614 278.135 75.5616 278.134 75.5618C278.133 75.562 278.132 75.5623 278.131 75.5625C278.13 75.5627 278.129 75.5629 278.128 75.5631C278.126 75.5634 278.125 75.5636 278.124 75.5638C278.123 75.564 278.122 75.5642 278.121 75.5644C278.12 75.5646 278.119 75.5648 278.119 75.565C278.118 75.5651 278.117 75.5653 278.116 75.5655C278.115 75.5657 278.114 75.5659 278.113 75.566C278.112 75.5662 278.111 75.5664 278.111 75.5665C278.11 75.5667 278.109 75.5669 278.108 75.567C278.108 75.5672 278.107 75.5673 278.106 75.5675C278.105 75.5676 278.105 75.5678 278.104 75.5679C278.103 75.568 278.103 75.5682 278.102 75.5683C278.101 75.5684 278.101 75.5685 278.1 75.5687C278.1 75.5688 278.099 75.5689 278.099 75.569C278.098 75.5691 278.097 75.5692 278.097 75.5693C278.096 75.5694 278.096 75.5695 278.096 75.5696C278.095 75.5697 278.095 75.5698 278.094 75.5699C278.094 75.5699 278.093 75.57 278.093 75.5701C278.093 75.5702 278.092 75.5702 278.092 75.5703C278.092 75.5704 278.091 75.5704 278.091 75.5705C278.091 75.5705 278.091 75.5706 278.09 75.5706C278.09 75.5707 278.09 75.5707 278.09 75.5707C278.09 75.5708 278.09 75.5708 278.089 75.5708C278.089 75.5708 278.089 75.5709 278.089 75.5709C278.089 75.5709 278.089 75.5709 278.089 75.5709C278.089 75.5709 278.484 77.5315 278.879 79.4921C278.879 79.4921 278.879 79.4921 278.879 79.4921C278.879 79.4921 278.879 79.4921 278.879 79.4921C278.879 79.492 278.88 79.492 278.88 79.492C278.88 79.4919 278.88 79.4919 278.88 79.4919C278.881 79.4918 278.881 79.4918 278.881 79.4917C278.881 79.4917 278.882 79.4916 278.882 79.4915C278.882 79.4915 278.883 79.4914 278.883 79.4913C278.883 79.4912 278.884 79.4912 278.884 79.4911C278.885 79.491 278.885 79.4909 278.886 79.4908C278.886 79.4907 278.886 79.4906 278.887 79.4905C278.888 79.4904 278.888 79.4903 278.889 79.4902C278.889 79.4901 278.89 79.4899 278.891 79.4898C278.891 79.4897 278.892 79.4895 278.892 79.4894C278.893 79.4893 278.894 79.4891 278.895 79.489C278.895 79.4888 278.896 79.4887 278.897 79.4885C278.898 79.4883 278.899 79.4882 278.899 79.488C278.9 79.4878 278.901 79.4877 278.902 79.4875C278.903 79.4873 278.904 79.4871 278.905 79.4869C278.906 79.4867 278.907 79.4865 278.908 79.4863C278.909 79.4861 278.91 79.4859 278.911 79.4857C278.912 79.4855 278.913 79.4853 278.914 79.485C278.915 79.4848 278.916 79.4846 278.918 79.4843C278.919 79.4841 278.92 79.4838 278.921 79.4836C278.923 79.4834 278.924 79.4831 278.925 79.4828C278.926 79.4826 278.928 79.4823 278.929 79.482C278.93 79.4818 278.932 79.4815 278.933 79.4812C278.935 79.4809 278.936 79.4806 278.938 79.4803C278.939 79.48 278.941 79.4797 278.942 79.4794C278.944 79.4791 278.945 79.4788 278.947 79.4785C278.948 79.4782 278.95 79.4778 278.952 79.4775C278.953 79.4772 278.955 79.4768 278.957 79.4765C278.958 79.4761 278.96 79.4758 278.962 79.4754C278.964 79.4751 278.965 79.4747 278.967 79.4744C278.969 79.474 278.971 79.4736 278.973 79.4732C278.975 79.4729 278.977 79.4725 278.978 79.4721C278.98 79.4717 278.982 79.4713 278.984 79.4709C278.986 79.4705 278.988 79.4701 278.99 79.4697C278.993 79.4692 278.995 79.4688 278.997 79.4684C278.999 79.468 279.001 79.4675 279.003 79.4671C279.005 79.4667 279.008 79.4662 279.01 79.4657C279.012 79.4653 279.014 79.4648 279.017 79.4644C279.019 79.4639 279.021 79.4634 279.024 79.463C279.026 79.4625 279.029 79.462 279.031 79.4615C279.033 79.461 279.036 79.4605 279.038 79.46C279.041 79.4595 279.043 79.459 279.046 79.4585C279.049 79.4579 279.051 79.4574 279.054 79.4569C279.057 79.4564 279.059 79.4558 279.062 79.4553C279.065 79.4547 279.067 79.4542 279.07 79.4536C279.073 79.4531 279.076 79.4525 279.078 79.4519C279.081 79.4514 279.084 79.4508 279.087 79.4502C279.09 79.4496 279.093 79.449 279.096 79.4485C279.099 79.4479 279.102 79.4473 279.105 79.4466C279.108 79.446 279.111 79.4454 279.114 79.4448C279.117 79.4442 279.12 79.4435 279.123 79.4429C279.126 79.4423 279.13 79.4416 279.133 79.441C279.136 79.4403 279.139 79.4397 279.143 79.439C279.146 79.4383 279.149 79.4377 279.153 79.437C279.156 79.4363 279.159 79.4356 279.163 79.4349C279.166 79.4342 279.17 79.4335 279.173 79.4328C279.177 79.4321 279.18 79.4314 279.184 79.4307C279.187 79.43 279.191 79.4293 279.195 79.4285C279.198 79.4278 279.202 79.4271 279.206 79.4263C279.209 79.4256 279.213 79.4248 279.217 79.4241C279.221 79.4233 279.225 79.4225 279.228 79.4217C279.232 79.421 279.236 79.4202 279.24 79.4194C279.244 79.4186 279.248 79.4178 279.252 79.417C279.256 79.4162 279.26 79.4154 279.264 79.4146C279.268 79.4138 279.272 79.4129 279.276 79.4121C279.28 79.4113 279.285 79.4104 279.289 79.4096C279.293 79.4087 279.297 79.4079 279.301 79.407C279.306 79.4062 279.31 79.4053 279.314 79.4044C279.319 79.4035 279.323 79.4027 279.328 79.4018C279.332 79.4009 279.336 79.4 279.341 79.3991C279.345 79.3982 279.35 79.3973 279.355 79.3963C279.359 79.3954 279.364 79.3945 279.368 79.3936C279.373 79.3926 279.378 79.3917 279.382 79.3907C279.387 79.3898 279.392 79.3888 279.397 79.3878C279.401 79.3869 279.406 79.3859 279.411 79.3849C279.416 79.3839 279.421 79.383 279.426 79.382C279.431 79.381 279.436 79.38 279.441 79.379C279.446 79.3779 279.451 79.3769 279.456 79.3759C279.461 79.3749 279.466 79.3738 279.471 79.3728C279.477 79.3718 279.482 79.3707 279.487 79.3696C279.492 79.3686 279.498 79.3675 279.503 79.3665C279.508 79.3654 279.514 79.3643 279.519 79.3632C279.524 79.3621 279.53 79.361 279.535 79.3599C279.541 79.3588 279.546 79.3577 279.552 79.3566C279.557 79.3555 279.563 79.3543 279.569 79.3532C279.574 79.3521 279.58 79.3509 279.586 79.3498C279.591 79.3486 279.597 79.3475 279.603 79.3463C279.609 79.3451 279.615 79.344 279.62 79.3428C279.626 79.3416 279.632 79.3404 279.638 79.3392C279.644 79.338 279.65 79.3368 279.656 79.3356C279.662 79.3344 279.668 79.3331 279.674 79.3319C279.68 79.3307 279.687 79.3294 279.693 79.3282C279.699 79.3269 279.705 79.3257 279.711 79.3244C279.718 79.3232 279.724 79.3219 279.73 79.3206C279.737 79.3193 279.743 79.318 279.75 79.3167C279.756 79.3154 279.763 79.3141 279.769 79.3128C279.776 79.3115 279.782 79.3102 279.789 79.3089C279.795 79.3075 279.802 79.3062 279.809 79.3049C279.815 79.3035 279.822 79.3021 279.829 79.3008C279.836 79.2994 279.842 79.298 279.849 79.2967C279.856 79.2953 279.863 79.2939 279.87 79.2925C279.877 79.2911 279.884 79.2897 279.891 79.2883C279.898 79.2869 279.905 79.2855 279.912 79.284C279.919 79.2826 279.926 79.2812 279.933 79.2797C279.941 79.2783 279.948 79.2768 279.955 79.2753C279.962 79.2739 279.97 79.2724 279.977 79.2709C279.984 79.2694 279.992 79.2679 279.999 79.2664C280.007 79.2649 280.014 79.2634 280.022 79.2619C280.029 79.2604 280.037 79.2589 280.044 79.2573C280.052 79.2558 280.06 79.2543 280.067 79.2527C280.075 79.2512 280.083 79.2496 280.091 79.248C280.098 79.2465 280.106 79.2449 280.114 79.2433C280.122 79.2417 280.13 79.2401 280.138 79.2385C280.146 79.2369 280.154 79.2353 280.162 79.2337C280.17 79.232 280.178 79.2304 280.186 79.2288C280.194 79.2271 280.203 79.2255 280.211 79.2238C280.219 79.2222 280.227 79.2205 280.236 79.2188C280.244 79.2172 280.252 79.2155 280.261 79.2138C280.269 79.2121 280.278 79.2104 280.286 79.2087C280.295 79.207 280.303 79.2052 280.312 79.2035C280.32 79.2018 280.329 79.2 280.338 79.1983C280.346 79.1965 280.355 79.1948 280.364 79.193C280.373 79.1912 280.381 79.1895 280.39 79.1877C280.399 79.1859 280.408 79.1841 280.417 79.1823C280.426 79.1805 280.435 79.1787 280.444 79.1769C280.453 79.175 280.462 79.1732 280.471 79.1714C280.48 79.1695 280.49 79.1677 280.499 79.1658C280.508 79.164 280.517 79.1621 280.527 79.1602C280.536 79.1583 280.545 79.1565 280.555 79.1546C280.564 79.1527 280.574 79.1508 280.583 79.1488C280.593 79.1469 280.602 79.145 280.612 79.1431C280.621 79.1411 280.631 79.1392 280.641 79.1372C280.65 79.1353 280.66 79.1333 280.67 79.1313C280.68 79.1294 280.69 79.1274 280.699 79.1254C280.709 79.1234 280.719 79.1214 280.729 79.1194C280.739 79.1174 280.749 79.1154 280.759 79.1133C280.769 79.1113 280.78 79.1093 280.79 79.1072C280.8 79.1052 280.81 79.1031 280.82 79.1011C280.831 79.099 280.841 79.0969 280.851 79.0948C280.862 79.0927 280.872 79.0906 280.883 79.0885C280.893 79.0864 280.904 79.0843 280.914 79.0822C280.925 79.08 280.935 79.0779 280.946 79.0758C280.957 79.0736 280.967 79.0715 280.978 79.0693C280.989 79.0671 281 79.065 281.01 79.0628C281.021 79.0606 281.032 79.0584 281.043 79.0562C281.054 79.054 281.065 79.0518 281.076 79.0495C281.087 79.0473 281.098 79.0451 281.109 79.0428C281.121 79.0406 281.132 79.0383 281.143 79.0361C281.154 79.0338 281.166 79.0315 281.177 79.0292C281.188 79.027 281.2 79.0247 281.211 79.0224C281.222 79.02 281.234 79.0177 281.246 79.0154C281.257 79.0131 281.269 79.0107 281.28 79.0084C281.292 79.0061 281.304 79.0037 281.315 79.0013C281.327 78.999 281.339 78.9966 281.351 78.9942C281.363 78.9918 281.375 78.9894 281.387 78.987C281.398 78.9846 281.41 78.9822 281.423 78.9798C281.435 78.9773 281.447 78.9749 281.459 78.9724C281.471 78.97 281.483 78.9675 281.495 78.9651C281.508 78.9626 281.52 78.9601 281.532 78.9576C281.545 78.9551 281.557 78.9526 281.57 78.9501C281.582 78.9476 281.595 78.9451 281.607 78.9426C281.62 78.94 281.632 78.9375 281.645 78.9349C281.658 78.9324 281.67 78.9298 281.683 78.9272C281.696 78.9247 281.709 78.9221 281.722 78.9195C281.735 78.9169 281.748 78.9143 281.761 78.9117C281.773 78.909 281.787 78.9064 281.8 78.9038C281.813 78.9011 281.826 78.8985 281.839 78.8958C281.852 78.8932 281.866 78.8905 281.879 78.8878C281.892 78.8852 281.905 78.8825 281.919 78.8798C281.932 78.8771 281.946 78.8743 281.959 78.8716C281.973 78.8689 281.986 78.8662 282 78.8634C282.014 78.8607 282.027 78.8579 282.041 78.8552C282.055 78.8524 282.069 78.8496 282.082 78.8468C282.096 78.844 282.11 78.8412 282.124 78.8384C282.138 78.8356 282.152 78.8328 282.166 78.83C282.18 78.8271 282.194 78.8243 282.208 78.8214C282.223 78.8186 282.237 78.8157 282.251 78.8128C282.265 78.81 282.28 78.8071 282.294 78.8042C282.308 78.8013 282.323 78.7984 282.337 78.7955C282.352 78.7925 282.366 78.7896 282.381 78.7867C282.396 78.7837 282.41 78.7808 282.425 78.7778C282.44 78.7748 282.454 78.7719 282.469 78.7689C282.484 78.7659 282.499 78.7629 282.514 78.7599C282.529 78.7569 282.544 78.7539 282.559 78.7508C282.574 78.7478 282.589 78.7448 282.604 78.7417C282.619 78.7386 282.635 78.7356 282.65 78.7325C282.665 78.7294 282.68 78.7263 282.696 78.7232C282.711 78.7201 282.727 78.717 282.742 78.7139C282.758 78.7108 282.773 78.7077 282.789 78.7045C282.804 78.7014 282.82 78.6982 282.836 78.695C282.852 78.6919 282.867 78.6887 282.883 78.6855C282.899 78.6823 282.915 78.6791 282.931 78.6759C282.947 78.6727 282.963 78.6695 282.979 78.6662C282.995 78.663 283.011 78.6597 283.027 78.6565C283.043 78.6532 283.06 78.65 283.076 78.6467C283.092 78.6434 283.109 78.6401 283.125 78.6368C283.141 78.6335 283.158 78.6302 283.174 78.6268C283.191 78.6235 283.208 78.6202 283.224 78.6168C283.241 78.6135 283.258 78.6101 283.274 78.6067C283.291 78.6033 283.308 78.6 283.325 78.5966C283.342 78.5932 283.359 78.5897 283.376 78.5863C283.393 78.5829 283.41 78.5795 283.427 78.576C283.444 78.5726 283.461 78.5691 283.478 78.5656C283.496 78.5622 283.513 78.5587 283.53 78.5552C283.547 78.5517 283.565 78.5482 283.582 78.5447C283.6 78.5412 283.617 78.5376 283.635 78.5341C283.653 78.5305 283.67 78.527 283.688 78.5234C283.706 78.5199 283.723 78.5163 283.741 78.5127C283.759 78.5091 283.777 78.5055 283.795 78.5019C283.813 78.4983 283.831 78.4946 283.849 78.491C283.867 78.4874 283.885 78.4837 283.903 78.48C283.921 78.4764 283.94 78.4727 283.958 78.469C283.976 78.4653 283.995 78.4616 284.013 78.4579C284.031 78.4542 284.05 78.4505 284.068 78.4467C284.087 78.443 284.106 78.4393 284.124 78.4355C284.143 78.4317 284.162 78.428 284.18 78.4242C284.199 78.4204 284.218 78.4166 284.237 78.4128C284.256 78.409 284.275 78.4052 284.294 78.4013C284.313 78.3975 284.332 78.3936 284.351 78.3898C284.37 78.3859 284.39 78.3821 284.409 78.3782C284.428 78.3743 284.448 78.3704 284.467 78.3665C284.486 78.3626 284.506 78.3586 284.525 78.3547C284.545 78.3508 284.564 78.3468 284.584 78.3429C284.604 78.3389 284.624 78.3349 284.643 78.331C284.663 78.327 284.683 78.323 284.703 78.319C284.723 78.315 284.743 78.3109 284.763 78.3069C284.783 78.3029 284.803 78.2988 284.823 78.2948C284.843 78.2907 284.863 78.2866 284.884 78.2825C284.904 78.2784 284.924 78.2743 284.945 78.2702C284.965 78.2661 284.986 78.262 285.006 78.2579C285.027 78.2537 285.047 78.2496 285.068 78.2454C285.089 78.2413 285.109 78.2371 285.13 78.2329C285.151 78.2287 285.172 78.2245 285.193 78.2203C285.214 78.2161 285.235 78.2118 285.256 78.2076C285.277 78.2034 285.298 78.1991 285.319 78.1948C285.34 78.1906 285.361 78.1863 285.383 78.182C285.404 78.1777 285.425 78.1734 285.447 78.1691C285.468 78.1648 285.49 78.1604 285.511 78.1561C285.533 78.1518 285.554 78.1474 285.576 78.143C285.598 78.1387 285.62 78.1343 285.641 78.1299C285.663 78.1255 285.685 78.1211 285.707 78.1167C285.729 78.1122 285.751 78.1078 285.773 78.1034C285.795 78.0989 285.817 78.0944 285.84 78.09C285.862 78.0855 285.884 78.081 285.906 78.0765C285.929 78.072 285.951 78.0675 285.974 78.063C285.996 78.0584 286.019 78.0539 286.041 78.0493C286.064 78.0448 286.087 78.0402 286.109 78.0356C286.132 78.031 286.155 78.0264 286.178 78.0218C286.201 78.0172 286.224 78.0126 286.247 78.008C286.27 78.0033 286.293 77.9987 286.316 77.994C286.339 77.9894 286.362 77.9847 286.386 77.98C286.409 77.9753 286.432 77.9706 286.456 77.9659C286.479 77.9612 286.502 77.9564 286.526 77.9517C286.55 77.947 286.573 77.9422 286.597 77.9374C286.621 77.9327 286.644 77.9279 286.668 77.9231C286.692 77.9183 286.716 77.9135 286.74 77.9086C286.764 77.9038 286.788 77.899 286.812 77.8941C286.836 77.8893 286.86 77.8844 286.884 77.8795C286.908 77.8747 286.933 77.8698 286.957 77.8648C286.982 77.8599 287.006 77.855 287.03 77.8501C287.055 77.8452 287.08 77.8402 287.104 77.8352C287.129 77.8303 287.153 77.8253 287.178 77.8203C287.203 77.8153 287.228 77.8103 287.253 77.8053C287.278 77.8003 287.303 77.7953 287.328 77.7902C287.353 77.7852 287.378 77.7801 287.403 77.775C287.428 77.77 287.454 77.7649 287.479 77.7598C287.504 77.7547 287.53 77.7495 287.555 77.7444C287.58 77.7393 287.606 77.7341 287.632 77.729C287.657 77.7238 287.683 77.7187 287.709 77.7135C287.734 77.7083 287.76 77.7031 287.786 77.6979C287.812 77.6927 287.838 77.6874 287.864 77.6822C287.89 77.6769 287.916 77.6717 287.942 77.6664C287.968 77.6611 287.995 77.6559 288.021 77.6506C288.047 77.6453 288.074 77.6399 288.1 77.6346C288.127 77.6293 288.153 77.6239 288.18 77.6186C288.206 77.6132 288.233 77.6079 288.26 77.6025C288.286 77.5971 288.313 77.5917 288.34 77.5863C288.367 77.5809 288.394 77.5754 288.421 77.57C288.448 77.5645 288.475 77.5591 288.502 77.5536C288.529 77.5481 288.557 77.5427 288.584 77.5372C288.611 77.5317 288.639 77.5261 288.666 77.5206C288.693 77.5151 288.721 77.5095 288.749 77.504C288.776 77.4984 288.804 77.4929 288.832 77.4873C288.859 77.4817 288.887 77.4761 288.915 77.4705C288.943 77.4648 288.971 77.4592 288.999 77.4536C289.027 77.4479 289.055 77.4423 289.083 77.4366C289.111 77.4309 289.14 77.4252 289.168 77.4195C289.196 77.4138 289.225 77.4081 289.253 77.4024C289.282 77.3966 289.31 77.3909 289.339 77.3851C289.367 77.3793 289.396 77.3736 289.425 77.3678C289.454 77.362 289.482 77.3562 289.511 77.3503L288.721 73.4291C288.692 73.4349 288.664 73.4407 288.635 73.4465C288.606 73.4523 288.577 73.4581 288.549 73.4639C288.52 73.4696 288.492 73.4754 288.463 73.4811C288.435 73.4869 288.406 73.4926 288.378 73.4983C288.35 73.504 288.321 73.5097 288.293 73.5153C288.265 73.521 288.237 73.5267 288.209 73.5323C288.181 73.538 288.153 73.5436 288.125 73.5492C288.097 73.5548 288.069 73.5604 288.042 73.566C288.014 73.5716 287.986 73.5772 287.959 73.5828C287.931 73.5883 287.904 73.5939 287.876 73.5994C287.849 73.6049 287.821 73.6104 287.794 73.6159C287.767 73.6214 287.739 73.6269 287.712 73.6324C287.685 73.6379 287.658 73.6433 287.631 73.6488C287.604 73.6542 287.577 73.6596 287.55 73.665C287.523 73.6705 287.496 73.6759 287.47 73.6812C287.443 73.6866 287.416 73.692 287.39 73.6974C287.363 73.7027 287.337 73.7081 287.31 73.7134C287.284 73.7187 287.257 73.724 287.231 73.7293C287.205 73.7346 287.179 73.7399 287.152 73.7452C287.126 73.7505 287.1 73.7557 287.074 73.7609C287.048 73.7662 287.022 73.7714 286.996 73.7766C286.97 73.7818 286.944 73.7871 286.919 73.7922C286.893 73.7974 286.867 73.8026 286.842 73.8078C286.816 73.8129 286.791 73.8181 286.765 73.8232C286.74 73.8283 286.714 73.8334 286.689 73.8385C286.664 73.8436 286.638 73.8487 286.613 73.8538C286.588 73.8589 286.563 73.8639 286.538 73.869C286.513 73.874 286.488 73.879 286.463 73.8841C286.438 73.8891 286.413 73.8941 286.388 73.8991C286.364 73.9041 286.339 73.909 286.314 73.914C286.29 73.919 286.265 73.9239 286.241 73.9289C286.216 73.9338 286.192 73.9387 286.167 73.9436C286.143 73.9485 286.119 73.9534 286.094 73.9583C286.07 73.9632 286.046 73.968 286.022 73.9729C285.998 73.9778 285.974 73.9826 285.95 73.9874C285.926 73.9922 285.902 73.997 285.878 74.0018C285.854 74.0066 285.831 74.0114 285.807 74.0162C285.783 74.021 285.76 74.0257 285.736 74.0305C285.713 74.0352 285.689 74.0399 285.666 74.0447C285.642 74.0494 285.619 74.0541 285.596 74.0588C285.572 74.0635 285.549 74.0681 285.526 74.0728C285.503 74.0775 285.48 74.0821 285.457 74.0867C285.434 74.0914 285.411 74.096 285.388 74.1006C285.365 74.1052 285.342 74.1098 285.32 74.1144C285.297 74.119 285.274 74.1235 285.251 74.1281C285.229 74.1326 285.206 74.1372 285.184 74.1417C285.161 74.1462 285.139 74.1508 285.117 74.1553C285.094 74.1598 285.072 74.1643 285.05 74.1687C285.028 74.1732 285.005 74.1777 284.983 74.1821C284.961 74.1866 284.939 74.191 284.917 74.1954C284.895 74.1998 284.873 74.2043 284.852 74.2087C284.83 74.213 284.808 74.2174 284.786 74.2218C284.765 74.2262 284.743 74.2305 284.721 74.2349C284.7 74.2392 284.678 74.2435 284.657 74.2479C284.635 74.2522 284.614 74.2565 284.593 74.2608C284.572 74.2651 284.55 74.2693 284.529 74.2736C284.508 74.2779 284.487 74.2821 284.466 74.2864C284.445 74.2906 284.424 74.2948 284.403 74.299C284.382 74.3033 284.361 74.3075 284.34 74.3117C284.319 74.3158 284.299 74.32 284.278 74.3242C284.257 74.3283 284.237 74.3325 284.216 74.3366C284.196 74.3408 284.175 74.3449 284.155 74.349C284.134 74.3531 284.114 74.3572 284.094 74.3613C284.074 74.3654 284.053 74.3695 284.033 74.3735C284.013 74.3776 283.993 74.3816 283.973 74.3857C283.953 74.3897 283.933 74.3937 283.913 74.3977C283.893 74.4017 283.873 74.4057 283.853 74.4097C283.834 74.4137 283.814 74.4177 283.794 74.4216C283.775 74.4256 283.755 74.4295 283.735 74.4335C283.716 74.4374 283.696 74.4413 283.677 74.4452C283.658 74.4492 283.638 74.453 283.619 74.4569C283.6 74.4608 283.581 74.4647 283.561 74.4685C283.542 74.4724 283.523 74.4763 283.504 74.4801C283.485 74.4839 283.466 74.4877 283.447 74.4916C283.428 74.4954 283.409 74.4992 283.391 74.503C283.372 74.5067 283.353 74.5105 283.334 74.5143C283.316 74.518 283.297 74.5218 283.279 74.5255C283.26 74.5293 283.242 74.533 283.223 74.5367C283.205 74.5404 283.186 74.5441 283.168 74.5478C283.15 74.5515 283.131 74.5551 283.113 74.5588C283.095 74.5625 283.077 74.5661 283.059 74.5698C283.041 74.5734 283.023 74.577 283.005 74.5806C282.987 74.5843 282.969 74.5879 282.951 74.5915C282.933 74.595 282.916 74.5986 282.898 74.6022C282.88 74.6058 282.863 74.6093 282.845 74.6129C282.827 74.6164 282.81 74.6199 282.792 74.6234C282.775 74.627 282.758 74.6305 282.74 74.634C282.723 74.6375 282.706 74.6409 282.688 74.6444C282.671 74.6479 282.654 74.6513 282.637 74.6548C282.62 74.6582 282.603 74.6617 282.586 74.6651C282.569 74.6685 282.552 74.6719 282.535 74.6753C282.518 74.6787 282.501 74.6821 282.484 74.6855C282.468 74.6889 282.451 74.6922 282.434 74.6956C282.418 74.6989 282.401 74.7023 282.385 74.7056C282.368 74.7089 282.352 74.7123 282.335 74.7156C282.319 74.7189 282.302 74.7222 282.286 74.7254C282.27 74.7287 282.254 74.732 282.237 74.7353C282.221 74.7385 282.205 74.7418 282.189 74.745C282.173 74.7482 282.157 74.7515 282.141 74.7547C282.125 74.7579 282.109 74.7611 282.093 74.7643C282.077 74.7675 282.062 74.7706 282.046 74.7738C282.03 74.777 282.015 74.7801 281.999 74.7833C281.983 74.7864 281.968 74.7896 281.952 74.7927C281.937 74.7958 281.921 74.7989 281.906 74.802C281.891 74.8051 281.875 74.8082 281.86 74.8113C281.845 74.8144 281.83 74.8174 281.814 74.8205C281.799 74.8235 281.784 74.8266 281.769 74.8296C281.754 74.8326 281.739 74.8356 281.724 74.8387C281.709 74.8417 281.694 74.8447 281.679 74.8476C281.665 74.8506 281.65 74.8536 281.635 74.8566C281.62 74.8595 281.606 74.8625 281.591 74.8654C281.577 74.8684 281.562 74.8713 281.548 74.8742C281.533 74.8771 281.519 74.8801 281.504 74.883C281.49 74.8858 281.475 74.8887 281.461 74.8916C281.447 74.8945 281.433 74.8974 281.419 74.9002C281.404 74.9031 281.39 74.9059 281.376 74.9087C281.362 74.9116 281.348 74.9144 281.334 74.9172C281.32 74.92 281.306 74.9228 281.292 74.9256C281.279 74.9284 281.265 74.9312 281.251 74.9339C281.237 74.9367 281.224 74.9394 281.21 74.9422C281.196 74.9449 281.183 74.9477 281.169 74.9504C281.156 74.9531 281.142 74.9558 281.129 74.9585C281.116 74.9612 281.102 74.9639 281.089 74.9666C281.076 74.9693 281.062 74.9719 281.049 74.9746C281.036 74.9773 281.023 74.9799 281.01 74.9826C280.997 74.9852 280.984 74.9878 280.971 74.9904C280.958 74.993 280.945 74.9957 280.932 74.9982C280.919 75.0008 280.906 75.0034 280.893 75.006C280.881 75.0086 280.868 75.0111 280.855 75.0137C280.842 75.0162 280.83 75.0188 280.817 75.0213C280.805 75.0239 280.792 75.0264 280.78 75.0289C280.767 75.0314 280.755 75.0339 280.743 75.0364C280.73 75.0389 280.718 75.0414 280.706 75.0438C280.693 75.0463 280.681 75.0488 280.669 75.0512C280.657 75.0536 280.645 75.0561 280.633 75.0585C280.621 75.0609 280.609 75.0634 280.597 75.0658C280.585 75.0682 280.573 75.0706 280.561 75.073C280.549 75.0754 280.537 75.0777 280.526 75.0801C280.514 75.0825 280.502 75.0848 280.49 75.0872C280.479 75.0895 280.467 75.0918 280.456 75.0942C280.444 75.0965 280.433 75.0988 280.421 75.1011C280.41 75.1034 280.398 75.1057 280.387 75.108C280.376 75.1103 280.364 75.1126 280.353 75.1148C280.342 75.1171 280.331 75.1194 280.319 75.1216C280.308 75.1238 280.297 75.1261 280.286 75.1283C280.275 75.1305 280.264 75.1327 280.253 75.1349C280.242 75.1372 280.231 75.1394 280.221 75.1415C280.21 75.1437 280.199 75.1459 280.188 75.1481C280.177 75.1502 280.167 75.1524 280.156 75.1545C280.145 75.1567 280.135 75.1588 280.124 75.1609C280.114 75.1631 280.103 75.1652 280.093 75.1673C280.082 75.1694 280.072 75.1715 280.061 75.1736C280.051 75.1757 280.041 75.1777 280.03 75.1798C280.02 75.1819 280.01 75.1839 280 75.186C279.99 75.188 279.98 75.1901 279.969 75.1921C279.959 75.1941 279.949 75.1962 279.939 75.1982C279.929 75.2002 279.919 75.2022 279.91 75.2042C279.9 75.2062 279.89 75.2081 279.88 75.2101C279.87 75.2121 279.861 75.214 279.851 75.216C279.841 75.218 279.831 75.2199 279.822 75.2218C279.812 75.2238 279.803 75.2257 279.793 75.2276C279.784 75.2295 279.774 75.2314 279.765 75.2333C279.755 75.2352 279.746 75.2371 279.737 75.239C279.727 75.2409 279.718 75.2427 279.709 75.2446C279.7 75.2464 279.691 75.2483 279.681 75.2501C279.672 75.252 279.663 75.2538 279.654 75.2556C279.645 75.2575 279.636 75.2593 279.627 75.2611C279.618 75.2629 279.609 75.2647 279.6 75.2665C279.592 75.2682 279.583 75.27 279.574 75.2718C279.565 75.2735 279.556 75.2753 279.548 75.277C279.539 75.2788 279.53 75.2805 279.522 75.2823C279.513 75.284 279.505 75.2857 279.496 75.2874C279.488 75.2891 279.479 75.2909 279.471 75.2925C279.462 75.2942 279.454 75.2959 279.446 75.2976C279.437 75.2993 279.429 75.3009 279.421 75.3026C279.413 75.3043 279.405 75.3059 279.396 75.3075C279.388 75.3092 279.38 75.3108 279.372 75.3124C279.364 75.3141 279.356 75.3157 279.348 75.3173C279.34 75.3189 279.332 75.3205 279.324 75.3221C279.316 75.3237 279.309 75.3252 279.301 75.3268C279.293 75.3284 279.285 75.3299 279.278 75.3315C279.27 75.333 279.262 75.3346 279.255 75.3361C279.247 75.3376 279.239 75.3392 279.232 75.3407C279.224 75.3422 279.217 75.3437 279.209 75.3452C279.202 75.3467 279.195 75.3482 279.187 75.3497C279.18 75.3512 279.173 75.3526 279.165 75.3541C279.158 75.3556 279.151 75.357 279.144 75.3585C279.136 75.3599 279.129 75.3614 279.122 75.3628C279.115 75.3642 279.108 75.3656 279.101 75.3671C279.094 75.3685 279.087 75.3699 279.08 75.3713C279.073 75.3727 279.066 75.3741 279.059 75.3754C279.053 75.3768 279.046 75.3782 279.039 75.3796C279.032 75.3809 279.025 75.3823 279.019 75.3836C279.012 75.385 279.005 75.3863 278.999 75.3876C278.992 75.389 278.986 75.3903 278.979 75.3916C278.973 75.3929 278.966 75.3942 278.96 75.3955C278.953 75.3968 278.947 75.3981 278.941 75.3994C278.934 75.4007 278.928 75.4019 278.922 75.4032C278.915 75.4045 278.909 75.4057 278.903 75.407C278.897 75.4082 278.891 75.4095 278.884 75.4107C278.878 75.4119 278.872 75.4131 278.866 75.4144C278.86 75.4156 278.854 75.4168 278.848 75.418C278.842 75.4192 278.836 75.4204 278.83 75.4215C278.825 75.4227 278.819 75.4239 278.813 75.4251C278.807 75.4262 278.801 75.4274 278.796 75.4285C278.79 75.4297 278.784 75.4308 278.779 75.432C278.773 75.4331 278.767 75.4342 278.762 75.4354C278.756 75.4365 278.751 75.4376 278.745 75.4387C278.74 75.4398 278.734 75.4409 278.729 75.442C278.724 75.4431 278.718 75.4442 278.713 75.4452C278.708 75.4463 278.702 75.4474 278.697 75.4484C278.692 75.4495 278.687 75.4505 278.681 75.4516C278.676 75.4526 278.671 75.4536 278.666 75.4547C278.661 75.4557 278.656 75.4567 278.651 75.4577C278.646 75.4587 278.641 75.4597 278.636 75.4607C278.631 75.4617 278.626 75.4627 278.621 75.4637C278.616 75.4647 278.612 75.4656 278.607 75.4666C278.602 75.4676 278.597 75.4685 278.592 75.4695C278.588 75.4704 278.583 75.4714 278.578 75.4723C278.574 75.4733 278.569 75.4742 278.565 75.4751C278.56 75.476 278.556 75.4769 278.551 75.4778C278.547 75.4787 278.542 75.4796 278.538 75.4805C278.533 75.4814 278.529 75.4823 278.524 75.4832C278.52 75.4841 278.516 75.4849 278.512 75.4858C278.507 75.4866 278.503 75.4875 278.499 75.4884C278.495 75.4892 278.49 75.49 278.486 75.4909C278.482 75.4917 278.478 75.4925 278.474 75.4933C278.47 75.4942 278.466 75.495 278.462 75.4958C278.458 75.4966 278.454 75.4974 278.45 75.4982C278.446 75.499 278.442 75.4997 278.438 75.5005C278.435 75.5013 278.431 75.5021 278.427 75.5028C278.423 75.5036 278.42 75.5043 278.416 75.5051C278.412 75.5058 278.408 75.5066 278.405 75.5073C278.401 75.508 278.398 75.5088 278.394 75.5095C278.39 75.5102 278.387 75.5109 278.383 75.5116C278.38 75.5123 278.376 75.513 278.373 75.5137C278.37 75.5144 278.366 75.5151 278.363 75.5158C278.359 75.5164 278.356 75.5171 278.353 75.5178C278.35 75.5184 278.346 75.5191 278.343 75.5197C278.34 75.5204 278.337 75.521 278.333 75.5217C278.33 75.5223 278.327 75.5229 278.324 75.5236C278.321 75.5242 278.318 75.5248 278.315 75.5254C278.312 75.526 278.309 75.5266 278.306 75.5272C278.303 75.5278 278.3 75.5284 278.297 75.529C278.294 75.5296 278.291 75.5301 278.289 75.5307C278.286 75.5313 278.283 75.5318 278.28 75.5324C278.277 75.533 278.275 75.5335 278.272 75.5341C278.269 75.5346 278.267 75.5351 278.264 75.5357C278.261 75.5362 278.259 75.5367 278.256 75.5372C278.254 75.5378 278.251 75.5383 278.249 75.5388C278.246 75.5393 278.244 75.5398 278.241 75.5403C278.239 75.5408 278.236 75.5412 278.234 75.5417C278.232 75.5422 278.229 75.5427 278.227 75.5431C278.225 75.5436 278.222 75.5441 278.22 75.5445C278.218 75.545 278.216 75.5454 278.213 75.5459C278.211 75.5463 278.209 75.5467 278.207 75.5472C278.205 75.5476 278.203 75.548 278.201 75.5484C278.199 75.5488 278.196 75.5493 278.194 75.5497C278.192 75.5501 278.19 75.5505 278.189 75.5509C278.187 75.5512 278.185 75.5516 278.183 75.552C278.181 75.5524 278.179 75.5528 278.177 75.5531C278.175 75.5535 278.174 75.5539 278.172 75.5542C278.17 75.5546 278.168 75.5549 278.167 75.5553C278.165 75.5556 278.163 75.5559 278.162 75.5563C278.16 75.5566 278.158 75.5569 278.157 75.5572C278.155 75.5576 278.154 75.5579 278.152 75.5582C278.151 75.5585 278.149 75.5588 278.148 75.5591C278.146 75.5594 278.145 75.5597 278.143 75.56C278.142 75.5602 278.141 75.5605 278.139 75.5608C278.138 75.5611 278.136 75.5613 278.135 75.5616C278.134 75.5619 278.133 75.5621 278.131 75.5624C278.13 75.5626 278.129 75.5629 278.128 75.5631C278.127 75.5633 278.125 75.5636 278.124 75.5638C278.123 75.564 278.122 75.5642 278.121 75.5645C278.12 75.5647 278.119 75.5649 278.118 75.5651C278.117 75.5653 278.116 75.5655 278.115 75.5657C278.114 75.5659 278.113 75.5661 278.112 75.5662C278.111 75.5664 278.11 75.5666 278.11 75.5668C278.109 75.5669 278.108 75.5671 278.107 75.5673C278.106 75.5674 278.105 75.5676 278.105 75.5677C278.104 75.5679 278.103 75.568 278.103 75.5682C278.102 75.5683 278.101 75.5684 278.101 75.5686C278.1 75.5687 278.099 75.5688 278.099 75.5689C278.098 75.5691 278.098 75.5692 278.097 75.5693C278.097 75.5694 278.096 75.5695 278.096 75.5696C278.095 75.5697 278.095 75.5698 278.094 75.5698C278.094 75.5699 278.093 75.57 278.093 75.5701C278.093 75.5702 278.092 75.5702 278.092 75.5703C278.092 75.5704 278.091 75.5704 278.091 75.5705C278.091 75.5705 278.091 75.5706 278.09 75.5706C278.09 75.5707 278.09 75.5707 278.09 75.5707C278.09 75.5708 278.089 75.5708 278.089 75.5708C278.089 75.5709 278.089 75.5709 278.089 75.5709C278.089 75.5709 278.089 75.5709 278.089 75.5709C278.484 77.5315 278.879 79.4922 278.879 79.4921C278.879 79.4921 278.879 79.4921 278.879 79.4921C278.879 79.4921 278.879 79.4921 278.879 79.4921C278.879 79.492 278.88 79.492 278.88 79.492C278.88 79.4919 278.88 79.4919 278.88 79.4918C278.881 79.4918 278.881 79.4918 278.881 79.4917C278.881 79.4916 278.882 79.4916 278.882 79.4915C278.882 79.4915 278.883 79.4914 278.883 79.4913C278.883 79.4912 278.884 79.4912 278.884 79.4911C278.885 79.491 278.885 79.4909 278.885 79.4908C278.886 79.4907 278.886 79.4906 278.887 79.4905C278.887 79.4904 278.888 79.4903 278.888 79.4902C278.889 79.4901 278.89 79.49 278.89 79.4899C278.891 79.4898 278.891 79.4896 278.892 79.4895C278.893 79.4894 278.893 79.4893 278.894 79.4891C278.895 79.489 278.895 79.4888 278.896 79.4887C278.897 79.4886 278.897 79.4884 278.898 79.4883C278.899 79.4881 278.9 79.4879 278.901 79.4878C278.901 79.4876 278.902 79.4874 278.903 79.4873C278.904 79.4871 278.905 79.4869 278.906 79.4867C278.907 79.4866 278.907 79.4864 278.908 79.4862C278.909 79.486 278.91 79.4858 278.911 79.4856C278.912 79.4854 278.913 79.4852 278.914 79.485C278.915 79.4848 278.916 79.4846 278.917 79.4844C278.918 79.4842 278.92 79.4839 278.921 79.4837C278.922 79.4835 278.923 79.4833 278.924 79.483C278.925 79.4828 278.926 79.4826 278.928 79.4824C278.929 79.4821 278.93 79.4819 278.931 79.4816C278.932 79.4814 278.934 79.4811 278.935 79.4809C278.936 79.4806 278.937 79.4804 278.939 79.4801C278.94 79.4798 278.941 79.4796 278.943 79.4793C278.944 79.479 278.945 79.4788 278.947 79.4785C278.948 79.4782 278.949 79.4779 278.951 79.4776C278.952 79.4773 278.954 79.4771 278.955 79.4768C278.957 79.4765 278.958 79.4762 278.96 79.4759C278.961 79.4756 278.963 79.4753 278.964 79.475C278.966 79.4747 278.967 79.4743 278.969 79.474C278.97 79.4737 278.972 79.4734 278.974 79.4731C278.975 79.4728 278.977 79.4724 278.978 79.4721C278.98 79.4718 278.982 79.4714 278.983 79.4711C278.985 79.4708 278.987 79.4704 278.988 79.4701C278.99 79.4697 278.992 79.4694 278.994 79.469C278.995 79.4687 278.997 79.4683 278.999 79.468C279.001 79.4676 279.003 79.4672 279.004 79.4669C279.006 79.4665 279.008 79.4661 279.01 79.4658C279.012 79.4654 279.014 79.465 279.015 79.4646C279.017 79.4643 279.019 79.4639 279.021 79.4635C279.023 79.4631 279.025 79.4627 279.027 79.4623C279.029 79.4619 279.031 79.4615 279.033 79.4611C279.035 79.4607 279.037 79.4603 279.039 79.4599C279.041 79.4595 279.043 79.4591 279.045 79.4587C279.047 79.4583 279.049 79.4579 279.051 79.4575C279.053 79.457 279.055 79.4566 279.057 79.4562C279.059 79.4558 279.062 79.4553 279.064 79.4549C279.066 79.4545 279.068 79.454 279.07 79.4536C279.072 79.4532 279.075 79.4527 279.077 79.4523C279.079 79.4518 279.081 79.4514 279.083 79.4509C279.086 79.4505 279.088 79.45 279.09 79.4496C279.092 79.4491 279.095 79.4487 279.097 79.4482C279.099 79.4477 279.102 79.4473 279.104 79.4468C279.106 79.4463 279.109 79.4459 279.111 79.4454C279.113 79.4449 279.116 79.4445 279.118 79.444C279.12 79.4435 279.123 79.443 279.125 79.4425C279.128 79.442 279.13 79.4416 279.132 79.4411C279.135 79.4406 279.137 79.4401 279.14 79.4396C279.142 79.4391 279.145 79.4386 279.147 79.4381C279.15 79.4376 279.152 79.4371 279.155 79.4366C279.157 79.4361 279.16 79.4356 279.162 79.435C279.165 79.4345 279.167 79.434 279.17 79.4335C279.173 79.433 279.175 79.4325 279.178 79.4319C279.18 79.4314 279.183 79.4309 279.186 79.4304C279.188 79.4298 279.191 79.4293 279.193 79.4288C279.196 79.4282 279.199 79.4277 279.201 79.4272C279.204 79.4266 279.207 79.4261 279.209 79.4255C279.212 79.425 279.215 79.4245 279.218 79.4239C279.22 79.4234 279.223 79.4228 279.226 79.4223C279.229 79.4217 279.231 79.4212 279.234 79.4206C279.237 79.42 279.24 79.4195 279.242 79.4189C279.245 79.4183 279.248 79.4178 279.251 79.4172C279.254 79.4167 279.256 79.4161 279.259 79.4155C279.262 79.4149 279.265 79.4144 279.268 79.4138C279.271 79.4132 279.274 79.4126 279.276 79.4121C279.279 79.4115 279.282 79.4109 279.285 79.4103C279.288 79.4097 279.291 79.4091 279.294 79.4086C279.297 79.408 279.3 79.4074 279.303 79.4068C279.306 79.4062 279.309 79.4056 279.311 79.405C279.314 79.4044 279.317 79.4038 279.32 79.4032C279.323 79.4026 279.326 79.402 279.329 79.4014C279.332 79.4008 279.335 79.4002 279.338 79.3996C279.341 79.399 279.344 79.3984 279.347 79.3977C279.351 79.3971 279.354 79.3965 279.357 79.3959C279.36 79.3953 279.363 79.3947 279.366 79.394C279.369 79.3934 279.372 79.3928 279.375 79.3922C279.378 79.3916 279.381 79.3909 279.384 79.3903C279.388 79.3897 279.391 79.389 279.394 79.3884C279.397 79.3878 279.4 79.3872 279.403 79.3865C279.406 79.3859 279.41 79.3852 279.413 79.3846C279.416 79.384 279.419 79.3833 279.422 79.3827C279.425 79.382 279.429 79.3814 279.432 79.3808C279.435 79.3801 279.438 79.3795 279.441 79.3788C279.445 79.3782 279.448 79.3775 279.451 79.3769C279.454 79.3762 279.458 79.3756 279.461 79.3749C279.464 79.3743 279.467 79.3736 279.471 79.373C279.474 79.3723 279.477 79.3716 279.48 79.371C279.484 79.3703 279.487 79.3697 279.49 79.369C279.493 79.3683 279.497 79.3677 279.5 79.367C279.503 79.3663 279.507 79.3657 279.51 79.365C279.513 79.3643 279.517 79.3637 279.52 79.363C279.523 79.3623 279.527 79.3617 279.53 79.361C279.533 79.3603 279.537 79.3596 279.54 79.359C279.543 79.3583 279.547 79.3576 279.55 79.3569C279.553 79.3563 279.557 79.3556 279.56 79.3549C279.564 79.3542 279.567 79.3535 279.57 79.3528C279.574 79.3522 279.577 79.3515 279.581 79.3508C279.584 79.3501 279.587 79.3494 279.591 79.3487C279.594 79.3481 279.598 79.3474 279.601 79.3467C279.604 79.346 279.608 79.3453 279.611 79.3446C279.615 79.3439 279.618 79.3432 279.622 79.3425C279.625 79.3418 279.629 79.3411 279.632 79.3404C279.635 79.3397 279.639 79.3391 279.642 79.3384C279.646 79.3377 279.649 79.337 279.653 79.3363C279.656 79.3356 279.66 79.3349 279.663 79.3342C279.667 79.3335 279.67 79.3328 279.674 79.3321C279.677 79.3314 279.681 79.3307 279.684 79.3299C279.688 79.3292 279.691 79.3285 279.695 79.3278C279.698 79.3271 279.702 79.3264 279.705 79.3257C279.709 79.325 279.712 79.3243 279.716 79.3236C279.719 79.3229 279.723 79.3222 279.726 79.3215C279.73 79.3208 279.733 79.3201 279.737 79.3193C279.74 79.3186 279.744 79.3179 279.747 79.3172C279.751 79.3165 279.754 79.3158 279.758 79.3151C279.761 79.3144 279.765 79.3136 279.769 79.3129C279.772 79.3122 279.776 79.3115 279.779 79.3108C279.783 79.3101 279.786 79.3094 279.79 79.3086C279.793 79.3079 279.797 79.3072 279.8 79.3065C279.804 79.3058 279.808 79.3051 279.811 79.3043C279.815 79.3036 279.818 79.3029 279.822 79.3022C279.825 79.3015 279.829 79.3008 279.833 79.3C279.836 79.2993 279.84 79.2986 279.843 79.2979C279.847 79.2972 279.85 79.2964 279.854 79.2957C279.858 79.295 279.861 79.2943 279.865 79.2936C279.868 79.2928 279.872 79.2921 279.875 79.2914C279.879 79.2907 279.883 79.29 279.886 79.2892C279.89 79.2885 279.893 79.2878 279.897 79.2871C279.9 79.2864 279.904 79.2856 279.908 79.2849C279.911 79.2842 279.915 79.2835 279.918 79.2828C279.922 79.282 279.925 79.2813 279.929 79.2806C279.933 79.2799 279.936 79.2792 279.94 79.2784C279.943 79.2777 279.947 79.277 279.951 79.2763C279.954 79.2755 279.958 79.2748 279.961 79.2741C279.965 79.2734 279.968 79.2727 279.972 79.2719C279.976 79.2712 279.979 79.2705 279.983 79.2698C279.986 79.2691 279.99 79.2683 279.993 79.2676C279.997 79.2669 280.001 79.2662 280.004 79.2655C280.008 79.2647 280.011 79.264 280.015 79.2633C280.018 79.2626 280.022 79.2619 280.026 79.2612C280.029 79.2604 280.033 79.2597 280.036 79.259C280.04 79.2583 280.043 79.2576 280.047 79.2568C280.051 79.2561 280.054 79.2554 280.058 79.2547C280.061 79.254 280.065 79.2533 280.068 79.2526C280.072 79.2518 280.075 79.2511 280.079 79.2504C280.082 79.2497 280.086 79.249 280.09 79.2483C280.093 79.2475 280.097 79.2468 280.1 79.2461C280.104 79.2454 280.107 79.2447 280.111 79.244C280.114 79.2433 280.118 79.2426 280.121 79.2419C280.125 79.2411 280.128 79.2404 280.132 79.2397C280.135 79.239 280.139 79.2383 280.142 79.2376C280.146 79.2369 280.149 79.2362 280.153 79.2355C280.156 79.2348 280.16 79.2341 280.163 79.2334C280.167 79.2327 280.17 79.232 280.174 79.2313C280.177 79.2306 280.181 79.2299 280.184 79.2292C280.188 79.2285 280.191 79.2278 280.195 79.2271C280.198 79.2264 280.202 79.2257 280.205 79.225C280.209 79.2243 280.212 79.2236 280.216 79.2229C280.219 79.2222 280.223 79.2215 280.226 79.2208C280.229 79.2201 280.233 79.2194 280.236 79.2187C280.24 79.218 280.243 79.2173 280.247 79.2166C280.25 79.2159 280.253 79.2153 280.257 79.2146C280.26 79.2139 280.264 79.2132 280.267 79.2125C280.27 79.2118 280.274 79.2111 280.277 79.2104C280.281 79.2098 280.284 79.2091 280.287 79.2084C280.291 79.2077 280.294 79.207 280.298 79.2064C280.301 79.2057 280.304 79.205 280.308 79.2043C280.311 79.2036 280.314 79.203 280.318 79.2023C280.321 79.2016 280.324 79.201 280.328 79.2003C280.331 79.1996 280.334 79.1989 280.338 79.1983C280.341 79.1976 280.344 79.1969 280.348 79.1963C280.351 79.1956 280.354 79.1949 280.358 79.1943C280.361 79.1936 280.364 79.1929 280.367 79.1923C280.371 79.1916 280.374 79.191 280.377 79.1903C280.381 79.1896 280.384 79.189 280.387 79.1883C280.39 79.1877 280.394 79.187 280.397 79.1864C280.4 79.1857 280.403 79.1851 280.406 79.1844C280.41 79.1838 280.413 79.1831 280.416 79.1825C280.419 79.1818 280.423 79.1812 280.426 79.1805C280.429 79.1799 280.432 79.1793 280.435 79.1786C280.438 79.178 280.442 79.1773 280.445 79.1767C280.448 79.1761 280.451 79.1754 280.454 79.1748C280.457 79.1742 280.46 79.1735 280.464 79.1729C280.467 79.1723 280.47 79.1717 280.473 79.171C280.476 79.1704 280.479 79.1698 280.482 79.1692C280.485 79.1685 280.488 79.1679 280.491 79.1673C280.495 79.1667 280.498 79.1661 280.501 79.1655C280.504 79.1648 280.507 79.1642 280.51 79.1636C280.513 79.163 280.516 79.1624 280.519 79.1618C280.522 79.1612 280.525 79.1606 280.528 79.16C280.531 79.1594 280.534 79.1588 280.537 79.1582C280.54 79.1576 280.543 79.157 280.546 79.1564C280.549 79.1558 280.552 79.1552 280.554 79.1546C280.557 79.154 280.56 79.1534 280.563 79.1528C280.566 79.1523 280.569 79.1517 280.572 79.1511C280.575 79.1505 280.578 79.1499 280.581 79.1493C280.583 79.1488 280.586 79.1482 280.589 79.1476C280.592 79.1471 280.595 79.1465 280.598 79.1459C280.6 79.1453 280.603 79.1448 280.606 79.1442C280.609 79.1436 280.612 79.1431 280.614 79.1425C280.617 79.142 280.62 79.1414 280.623 79.1409C280.626 79.1403 280.628 79.1397 280.631 79.1392L279.841 75.218ZM287.654 76.7536C289.264 78.4811 292.209 80.3125 295.929 80.2758C299.737 80.2381 303.922 78.252 307.953 73.1515L304.814 70.6713C301.318 75.0957 298.179 76.2533 295.89 76.276C293.513 76.2994 291.588 75.1076 290.579 74.0258L287.654 76.7536ZM304.445 72.4038C304.803 73.8143 305.45 75.3874 306.468 76.7002C307.497 78.0267 308.996 79.1899 311.009 79.4553C313.014 79.7194 315.143 79.0426 317.336 77.4901C319.521 75.9435 321.909 73.4365 324.54 69.7424L321.282 67.4219C318.79 70.92 316.706 73.0358 315.025 74.2251C313.354 75.4085 312.224 75.5807 311.532 75.4895C310.849 75.3996 310.214 75.0033 309.629 74.2485C309.033 73.4802 308.584 72.4504 308.322 71.419L304.445 72.4038Z" fill="#ECF95B"/>
<path d="M288.239 114.574C301.919 110.278 329.006 97.2746 342.944 98.1633" stroke="#ECF95B" stroke-width="4" stroke-linecap="round"/>
</svg>
